<svg xmlns="http://www.w3.org/2000/svg" viewBox="0 0 32 32" role="img" aria-label="Frescopa">
  <rect width="32" height="32" fill="#fff"/>
  <g transform="translate(2.5 4) scale(0.105)">
    <path fill="#eaa33a" d="M152.258,210.922q-4.274.429-8.687.422c-32.95,0-70.723-17.509-98.9-46.448C-2.478,116.46-14.181,50.6,18.588,18.1,30.694,6.095,47.429-.122,67.1,0c32.186.282,68.336,17.853,96.7,47.006a179.461,179.461,0,0,1,16.213,19.134c15.794-9.663,32.668-15.12,48.332-15.256,15.3-.076,28.251,4.738,37.663,14.078,25.321,25.109,16.457,75.807-19.761,113.006-21.733,22.33-49.47,35.782-74.187,36l-.6.014A58.662,58.662,0,0,1,152.258,210.922Zm19.716-7.088c22.031-.193,47.047-12.5,66.92-32.9,31.512-32.387,40.8-75.262,21.5-97.09-3.459,17.894-16.637,54.679-66.761,69.485-20.983,6.2-34.831,15.8-41.147,28.527-5.8,11.687-3.508,23.035-2.364,27.1A45.683,45.683,0,0,0,171.974,203.834ZM52.038,157.86c23.98,24.626,55.152,40.408,83.349,42.988q-.5-.466-.985-.948c-17.487-17.345-18.665-46.9-5.786-75.782a155.443,155.443,0,0,0-15.239-5.341C67.85,105.332,46.2,78.023,36.052,57.481A112.034,112.034,0,0,1,25.8,25.287C-3.019,53.929,8.741,113.388,52.038,157.86ZM228.447,61.03c-22.038.186-47.054,12.489-66.927,32.894-30.628,31.465-40.261,72.85-23.068,95.194a46.936,46.936,0,0,1,4.772-21.553c7.58-15.46,23.558-26.876,47.491-33.946,52.425-15.483,59.56-56.147,60.528-67.176a44.907,44.907,0,0,0-22.281-5.415ZM116.3,109.067a164.3,164.3,0,0,1,16.858,5.951,132.417,132.417,0,0,1,21-28.123,136.1,136.1,0,0,1,17.376-15.078,169.85,169.85,0,0,0-15.092-17.781c-26.5-27.227-59.93-43.643-89.423-43.89-12.2-.1-22.963,2.585-31.807,7.853C36.155,31.181,44.4,87.832,116.3,109.067Z"/>
  </g>
</svg>
