<svg width="26" height="26" viewBox="0 0 26 26" fill="none" xmlns="http://www.w3.org/2000/svg">
<g id="noun-configuration-3558643 1">
<path id="Vector" d="M13 11V8H10V6H13V3H15V6H18V8H15V11H13ZM9 24C8.45 24 7.97917 23.8042 7.5875 23.4125C7.19583 23.0208 7 22.55 7 22C7 21.45 7.19583 20.9792 7.5875 20.5875C7.97917 20.1958 8.45 20 9 20C9.55 20 10.0208 20.1958 10.4125 20.5875C10.8042 20.9792 11 21.45 11 22C11 22.55 10.8042 23.0208 10.4125 23.4125C10.0208 23.8042 9.55 24 9 24ZM19 24C18.45 24 17.9792 23.8042 17.5875 23.4125C17.1958 23.0208 17 22.55 17 22C17 21.45 17.1958 20.9792 17.5875 20.5875C17.9792 20.1958 18.45 20 19 20C19.55 20 20.0208 20.1958 20.4125 20.5875C20.8042 20.9792 21 21.45 21 22C21 22.55 20.8042 23.0208 20.4125 23.4125C20.0208 23.8042 19.55 24 19 24ZM3 6V4H6.275L10.525 13H17.525L21.425 6H23.7L19.3 13.95C19.1167 14.2833 18.8708 14.5417 18.5625 14.725C18.2542 14.9083 17.9167 15 17.55 15H10.1L9 17H21V19H9C8.25 19 7.67917 18.675 7.2875 18.025C6.89583 17.375 6.88333 16.7167 7.25 16.05L8.6 13.6L5 6H3Z" fill="#ED0000"/>
</g>
</svg>
