<svg width="16" height="16" viewBox="0 0 16 16" fill="none" xmlns="http://www.w3.org/2000/svg">
<g clip-path="url(#clip0_9920_79075)">
<path d="M8 0C3.584 0 0 3.584 0 8C0 12.416 3.584 16 8 16C12.416 16 16 12.416 16 8C16 3.584 12.416 0 8 0ZM8 14.72C4.288 14.72 1.28 11.712 1.28 8C1.28 4.288 4.288 1.28 8 1.28C11.712 1.28 14.72 4.288 14.72 8C14.72 11.712 11.712 14.72 8 14.72Z" fill="white"/>
<path d="M11.2002 7.35625H8.64016V4.79625C8.64016 4.44425 8.35216 4.15625 8.00016 4.15625C7.64816 4.15625 7.36016 4.44425 7.36016 4.79625V7.35625H4.80016C4.44816 7.35625 4.16016 7.64425 4.16016 7.99625C4.16016 8.34825 4.44816 8.63625 4.80016 8.63625H7.36016V11.1962C7.36016 11.5482 7.64816 11.8362 8.00016 11.8362C8.35216 11.8362 8.64016 11.5482 8.64016 11.1962V8.63625H11.2002C11.5522 8.63625 11.8402 8.34825 11.8402 7.99625C11.8402 7.64425 11.5522 7.35625 11.2002 7.35625Z" fill="white"/>
</g>
<defs>
<clipPath id="clip0_9920_79075">
<rect width="16" height="16" fill="white"/>
</clipPath>
</defs>
</svg>
