<svg width="26" height="27" viewBox="0 0 26 27" fill="none" xmlns="http://www.w3.org/2000/svg">
<g id="noun-configuration-3558643 1">
<path id="Vector" d="M13 11.6172V8.61719H10V6.61719H13V3.61719H15V6.61719H18V8.61719H15V11.6172H13ZM9 24.6172C8.45 24.6172 7.97917 24.4214 7.5875 24.0297C7.19583 23.638 7 23.1672 7 22.6172C7 22.0672 7.19583 21.5964 7.5875 21.2047C7.97917 20.813 8.45 20.6172 9 20.6172C9.55 20.6172 10.0208 20.813 10.4125 21.2047C10.8042 21.5964 11 22.0672 11 22.6172C11 23.1672 10.8042 23.638 10.4125 24.0297C10.0208 24.4214 9.55 24.6172 9 24.6172ZM19 24.6172C18.45 24.6172 17.9792 24.4214 17.5875 24.0297C17.1958 23.638 17 23.1672 17 22.6172C17 22.0672 17.1958 21.5964 17.5875 21.2047C17.9792 20.813 18.45 20.6172 19 20.6172C19.55 20.6172 20.0208 20.813 20.4125 21.2047C20.8042 21.5964 21 22.0672 21 22.6172C21 23.1672 20.8042 23.638 20.4125 24.0297C20.0208 24.4214 19.55 24.6172 19 24.6172ZM3 6.61719V4.61719H6.275L10.525 13.6172H17.525L21.425 6.61719H23.7L19.3 14.5672C19.1167 14.9005 18.8708 15.1589 18.5625 15.3422C18.2542 15.5255 17.9167 15.6172 17.55 15.6172H10.1L9 17.6172H21V19.6172H9C8.25 19.6172 7.67917 19.2922 7.2875 18.6422C6.89583 17.9922 6.88333 17.3339 7.25 16.6672L8.6 14.2172L5 6.61719H3Z" fill="#1E1E1E"/>
</g>
</svg>
