<svg id="arroba" xmlns="http://www.w3.org/2000/svg" width="48" height="48" viewBox="0 0 48 48">
  <g id="Group_3034" data-name="Group 3034" transform="translate(21 21)">
    <g id="Group_3033" data-name="Group 3033">
      <path id="Path_2899" data-name="Path 2899" d="M227,224c-1.851,0-3,1.437-3,3.75s1.149,3.75,3,3.75,3-1.437,3-3.75S228.851,224,227,224Z" transform="translate(-224 -224)"/>
    </g>
  </g>
  <g id="Group_3036" data-name="Group 3036">
    <g id="Group_3035" data-name="Group 3035">
      <path id="Path_2900" data-name="Path 2900" d="M24,0A24,24,0,1,0,48,24,24,24,0,0,0,24,0ZM39,25.5a5.974,5.974,0,0,1-10.521,3.9A5.62,5.62,0,0,1,24,31.5c-3.534,0-6-2.775-6-6.75S20.466,18,24,18a5.789,5.789,0,0,1,3.129.9A1.5,1.5,0,0,1,30,19.5v6a3,3,0,0,0,6,0v-.873C36,18.252,31.533,12.87,25.605,12.1a12.009,12.009,0,0,0-4.44,23.571,12.093,12.093,0,0,0,8.151-.921,1.5,1.5,0,0,1,1.335,2.691A14.875,14.875,0,0,1,24.012,39a15.684,15.684,0,0,1-3.513-.4A14.8,14.8,0,0,1,9.324,27.165,15.021,15.021,0,0,1,25.989,9.126C33.408,10.086,39,16.749,39,24.627Z"/>
    </g>
  </g>
</svg>
