<svg width="25" height="24" viewBox="0 0 25 24" fill="none" xmlns="http://www.w3.org/2000/svg">
<g clip-path="url(#clip0_bell)">
<!-- Bell icon (smaller, centered in circle) -->
<path d="M12.6367 18C13.1867 18 13.6367 17.55 13.6367 17H11.6367C11.6367 17.55 12.0867 18 12.6367 18ZM16.6367 14V11C16.6367 9.07 15.5167 7.43 13.6367 6.97V6.5C13.6367 5.95 13.1867 5.5 12.6367 5.5C12.0867 5.5 11.6367 5.95 11.6367 6.5V6.97C9.76672 7.43 8.63672 9.06 8.63672 11V14L7.63672 15V15.5H17.6367V15L16.6367 14ZM14.6367 13.5H10.6367V11C10.6367 9.62 11.2567 8.5 12.6367 8.5C14.0167 8.5 14.6367 9.62 14.6367 11V13.5Z" fill="#333333"/>
<!-- Circle border -->
<path fill-rule="evenodd" clip-rule="evenodd" d="M12.6367 1.23855C18.5767 1.23855 23.3982 6.05371 23.3982 12C23.3982 17.9463 18.583 22.7615 12.6367 22.7615C6.69043 22.7615 1.87527 17.94 1.87527 12C1.87527 6.06003 6.69043 1.23855 12.6367 1.23855ZM12.6367 0C19.2655 0 24.6367 5.37125 24.6367 12C24.6367 18.6288 19.2655 24 12.6367 24C6.00797 24 0.636719 18.6224 0.636719 12C0.636719 5.37757 6.00797 0 12.6367 0Z" fill="#333333"/>
</g>
<defs>
<clipPath id="clip0_bell">
<rect width="24" height="24" fill="white" transform="translate(0.636719)"/>
</clipPath>
</defs>
</svg>

