<svg width="16" height="17" viewBox="0 0 16 17" fill="none" xmlns="http://www.w3.org/2000/svg">
<g id="Group 1000002233">
<path id="Vector" fill-rule="evenodd" clip-rule="evenodd" d="M11.7692 2.3107H8.53846V1.23377C8.53846 0.936543 8.29723 0.695312 8 0.695312C7.70277 0.695312 7.46154 0.936543 7.46154 1.23377V2.3107H4.23077V1.23377C4.23077 0.936543 3.98954 0.695312 3.69231 0.695312C3.39508 0.695312 3.15385 0.936543 3.15385 1.23377V2.3107H2.61538C2.18677 2.3107 1.77592 2.48085 1.47331 2.784C1.17015 3.08662 1 3.49747 1 3.92608V14.6953C1 15.1239 1.17015 15.5348 1.47331 15.8374C1.77592 16.1405 2.18677 16.3107 2.61538 16.3107C5.04923 16.3107 10.9508 16.3107 13.3846 16.3107C13.8132 16.3107 14.2241 16.1405 14.5267 15.8374C14.8298 15.5348 15 15.1239 15 14.6953V3.92608C15 3.49747 14.8298 3.08662 14.5267 2.784C14.2241 2.48085 13.8132 2.3107 13.3846 2.3107H12.8462V1.23377C12.8462 0.936543 12.6049 0.695312 12.3077 0.695312C12.0105 0.695312 11.7692 0.936543 11.7692 1.23377V2.3107ZM13.9231 6.07993V14.6953C13.9231 14.838 13.8665 14.9753 13.7653 15.076C13.6646 15.1772 13.5273 15.2338 13.3846 15.2338H2.61538C2.47269 15.2338 2.33538 15.1772 2.23469 15.076C2.13346 14.9753 2.07692 14.838 2.07692 14.6953V6.07993H13.9231ZM2.61538 3.38762H13.3846C13.5273 3.38762 13.6646 3.44416 13.7653 3.54539C13.8665 3.64608 13.9231 3.78339 13.9231 3.92608V5.003H2.07692V3.92608C2.07692 3.78339 2.13346 3.64608 2.23469 3.54539C2.33538 3.44416 2.47269 3.38762 2.61538 3.38762Z" fill="#F40000" stroke="#F40000" stroke-width="0.6"/>
</g>
</svg>
