<svg width="14" height="15" viewBox="0 0 14 15" fill="none" xmlns="http://www.w3.org/2000/svg">
<path d="M1.75 15C1.3375 15 0.984375 14.8531 0.690625 14.5594C0.396875 14.2656 0.25 13.9125 0.25 13.5V3C0.25 2.5875 0.396875 2.23438 0.690625 1.94063C0.984375 1.64688 1.3375 1.5 1.75 1.5H2.5V0H4V1.5H10V0H11.5V1.5H12.25C12.6625 1.5 13.0156 1.64688 13.3094 1.94063C13.6031 2.23438 13.75 2.5875 13.75 3V13.5C13.75 13.9125 13.6031 14.2656 13.3094 14.5594C13.0156 14.8531 12.6625 15 12.25 15H1.75ZM1.75 13.5H12.25V6H1.75V13.5ZM1.75 4.5H12.25V3H1.75V4.5ZM7 9C6.7875 9 6.60938 8.92813 6.46563 8.78438C6.32188 8.64062 6.25 8.4625 6.25 8.25C6.25 8.0375 6.32188 7.85938 6.46563 7.71563C6.60938 7.57188 6.7875 7.5 7 7.5C7.2125 7.5 7.39063 7.57188 7.53438 7.71563C7.67813 7.85938 7.75 8.0375 7.75 8.25C7.75 8.4625 7.67813 8.64062 7.53438 8.78438C7.39063 8.92813 7.2125 9 7 9ZM4 9C3.7875 9 3.60938 8.92813 3.46563 8.78438C3.32188 8.64062 3.25 8.4625 3.25 8.25C3.25 8.0375 3.32188 7.85938 3.46563 7.71563C3.60938 7.57188 3.7875 7.5 4 7.5C4.2125 7.5 4.39062 7.57188 4.53438 7.71563C4.67813 7.85938 4.75 8.0375 4.75 8.25C4.75 8.4625 4.67813 8.64062 4.53438 8.78438C4.39062 8.92813 4.2125 9 4 9ZM10 9C9.7875 9 9.60938 8.92813 9.46563 8.78438C9.32188 8.64062 9.25 8.4625 9.25 8.25C9.25 8.0375 9.32188 7.85938 9.46563 7.71563C9.60938 7.57188 9.7875 7.5 10 7.5C10.2125 7.5 10.3906 7.57188 10.5344 7.71563C10.6781 7.85938 10.75 8.0375 10.75 8.25C10.75 8.4625 10.6781 8.64062 10.5344 8.78438C10.3906 8.92813 10.2125 9 10 9ZM7 12C6.7875 12 6.60938 11.9281 6.46563 11.7844C6.32188 11.6406 6.25 11.4625 6.25 11.25C6.25 11.0375 6.32188 10.8594 6.46563 10.7156C6.60938 10.5719 6.7875 10.5 7 10.5C7.2125 10.5 7.39063 10.5719 7.53438 10.7156C7.67813 10.8594 7.75 11.0375 7.75 11.25C7.75 11.4625 7.67813 11.6406 7.53438 11.7844C7.39063 11.9281 7.2125 12 7 12ZM4 12C3.7875 12 3.60938 11.9281 3.46563 11.7844C3.32188 11.6406 3.25 11.4625 3.25 11.25C3.25 11.0375 3.32188 10.8594 3.46563 10.7156C3.60938 10.5719 3.7875 10.5 4 10.5C4.2125 10.5 4.39062 10.5719 4.53438 10.7156C4.67813 10.8594 4.75 11.0375 4.75 11.25C4.75 11.4625 4.67813 11.6406 4.53438 11.7844C4.39062 11.9281 4.2125 12 4 12ZM10 12C9.7875 12 9.60938 11.9281 9.46563 11.7844C9.32188 11.6406 9.25 11.4625 9.25 11.25C9.25 11.0375 9.32188 10.8594 9.46563 10.7156C9.60938 10.5719 9.7875 10.5 10 10.5C10.2125 10.5 10.3906 10.5719 10.5344 10.7156C10.6781 10.8594 10.75 11.0375 10.75 11.25C10.75 11.4625 10.6781 11.6406 10.5344 11.7844C10.3906 11.9281 10.2125 12 10 12Z" fill="#ED0000"/>
</svg>