<svg width="36" height="36" viewBox="0 0 36 36" fill="none" xmlns="http://www.w3.org/2000/svg">
<circle cx="18" cy="18" r="16" stroke="#ED0000" stroke-width="2" stroke-dasharray="4 4"/>
<path d="M14.8044 26C14.364 26 13.987 25.8433 13.6734 25.53C13.3598 25.2167 13.203 24.84 13.203 24.4C13.203 23.96 13.3598 23.5833 13.6734 23.27C13.987 22.9567 14.364 22.8 14.8044 22.8C15.2448 22.8 15.6219 22.9567 15.9355 23.27C16.2491 23.5833 16.4059 23.96 16.4059 24.4C16.4059 24.84 16.2491 25.2167 15.9355 25.53C15.6219 25.8433 15.2448 26 14.8044 26ZM22.8118 26C22.3714 26 21.9944 25.8433 21.6808 25.53C21.3672 25.2167 21.2104 24.84 21.2104 24.4C21.2104 23.96 21.3672 23.5833 21.6808 23.27C21.9944 22.9567 22.3714 22.8 22.8118 22.8C23.2522 22.8 23.6293 22.9567 23.9429 23.27C24.2565 23.5833 24.4133 23.96 24.4133 24.4C24.4133 24.84 24.2565 25.2167 23.9429 25.53C23.6293 25.8433 23.2522 26 22.8118 26ZM14.1238 13.2L16.0456 17.2H21.6508L23.8528 13.2H14.1238ZM13.3631 11.6H25.174C25.481 11.6 25.7145 11.7367 25.8747 12.01C26.0348 12.2833 26.0415 12.56 25.8947 12.84L23.0521 17.96C22.9053 18.2267 22.7084 18.4333 22.4615 18.58C22.2146 18.7267 21.9444 18.8 21.6508 18.8H15.6853L14.8044 20.4H24.4133V22H14.8044C14.2039 22 13.7501 21.7367 13.4432 21.21C13.1362 20.6833 13.1229 20.16 13.4031 19.64L14.4841 17.68L11.6015 11.6H10V10H12.6024L13.3631 11.6Z" fill="#ED0000"/>
</svg>
