<?xml version="1.0" encoding="UTF-8"?>
<svg id="Layer_1" data-name="Layer 1" xmlns="http://www.w3.org/2000/svg" xmlns:xlink="http://www.w3.org/1999/xlink" version="1.1" viewBox="0 0 343 305">
  <defs>
    <style>
      .cls-1 {
        fill: #fef3f9;
      }

      .cls-1, .cls-2, .cls-3 {
        stroke-width: 0px;
      }

      .cls-4 {
        clip-path: url(#clippath);
      }

      .cls-2 {
        fill: none;
      }

      .cls-3 {
        fill: #fff;
      }
    </style>
    <clipPath id="clippath">
      <rect class="cls-2" x="7.4" y="6.6" width="328.1" height="291.8"/>
    </clipPath>
  </defs>
  <g class="cls-4">
    <g>
      <path class="cls-1" d="M92.1,293.4c-7-1.5-90.4-14.8-84.3-113.6C13.9,81.2,21.6,51.6,54.1,40.8c32.4-10.8,111.4-62.2,173.3-13.4,61.9,48.9,128.8,92.6,102.3,170.7-26.5,78-30.9,104-100.1,100.1-69.2-4-104.5,2.5-137.5-4.6h0Z"/>
      <path class="cls-3" d="M61.6,61.3h89.7c.5-8.6-3.8-17.2-11.5-21.2s-17.6-3.2-24.4,2.1c-6.1-5.3-12.4-10.7-20.2-13-7.7-2.4-17.2-.9-22,5.6-3.3,4.5-3.7,10.7-2.1,16-7,0-14,0-21,.5-4,.2-9.4,1.3-9.6,5.4-.3,5.9,21,4.7,21,4.7h0Z"/>
      <path class="cls-3" d="M253.1,59.3c-1.6-.9-3.5-1.1-5.4-.6-1.1.3-2.2.7-3.3,1-2,.7-2.2,1.1-3.1-.6-1-1.9.2-3.9-1.6-6-1.2-1.4-3.2-2.3-5.2-2.3s-1.4,0-2,.3c-1.3-3.2-2.9-6.2-5.5-8.7-5.2-5-12.9-7-19.6-4.2-3,1.2-5.6,3.3-7.7,5.7-1.1,1.2-2.1,2.7-2.9,4.1-.8,1.3-1.1,3.1-2,4.3-2-.8-3.8-1.7-5.8-2.3-4-1.1-8.4-1.3-12,1.3-2.9,2.2-4.7,6-3.8,9.7.6,2,1.5,3.5,3.5,3.5h81.3s-2.1-3.6-5.1-5.3h0Z"/>
      <path class="cls-3" d="M291.4,87.3c1-5-.9-10.5-4.6-14.1-4.6-4.5-11.7-6.3-17.8-3.8-2.7,1.1-5.1,3-7,5.2-1,1.1-1.9,2.4-2.6,3.7-.7,1.2-1,2.8-1.8,3.9-1.8-.7-3.4-1.5-5.3-2.1-3.6-1.1-7.7-1.2-10.8,1.1-2.7,2-4.3,5.5-3.4,8.9.3,1.1,1.1,3.1,2.5,3.2h47.2c.8,0,.9-.2,1.3-.8,1.1-1.6,1.9-3.4,2.3-5.3h0Z"/>
      <path class="cls-3" d="M22,94.7c-1-5,.9-10.5,4.6-14.1,4.6-4.5,11.7-6.3,17.8-3.8,2.7,1.1,5.1,3,7,5.2,1,1.1,1.9,2.4,2.6,3.7.7,1.2,1,2.8,1.8,3.9,1.8-.7,3.4-1.5,5.3-2.1,3.6-1.1,7.7-1.2,10.8,1.1,2.7,2,4.3,5.5,3.4,8.9-.3,1.1-1.1,3.1-2.5,3.2H25.6c-.8,0-.9-.2-1.3-.8-1.1-1.6-1.9-3.4-2.3-5.3Z"/>
    </g>
  </g>
</svg>