<svg id="shopping-cart-black-shape" xmlns="http://www.w3.org/2000/svg" width="28.363" height="24" viewBox="0 0 28.363 24">
  <g id="Group_3010" data-name="Group 3010">
    <path id="Path_2889" data-name="Path 2889" d="M365.446,367.635a2.183,2.183,0,1,0,.639-1.543A2.1,2.1,0,0,0,365.446,367.635Z" transform="translate(-343.628 -345.817)" fill="#A0A0A0"/>
    <path id="Path_2890" data-name="Path 2890" d="M28.039,39.048a1.048,1.048,0,0,0-.767-.324H6.8q-.017-.119-.077-.434t-.094-.5a3.007,3.007,0,0,0-.128-.451,1.359,1.359,0,0,0-.222-.418,1.088,1.088,0,0,0-.341-.264,1.04,1.04,0,0,0-.486-.111H1.091a1.049,1.049,0,0,0-.767.324,1.07,1.07,0,0,0,0,1.534,1.049,1.049,0,0,0,.767.324H4.568L7.585,52.753q-.034.068-.349.648t-.5,1.014a1.872,1.872,0,0,0-.187.673,1.106,1.106,0,0,0,1.091,1.091H25.09a1.091,1.091,0,0,0,0-2.182H9.409a3.291,3.291,0,0,0,.409-1.091,1.842,1.842,0,0,0-.043-.375q-.043-.2-.1-.452T9.6,51.714l17.8-2.079a1.058,1.058,0,0,0,.7-.367,1.074,1.074,0,0,0,.273-.724V39.816A1.049,1.049,0,0,0,28.039,39.048Z" transform="translate(0 -36.543)" fill="#A0A0A0"/>
    <path id="Path_2891" data-name="Path 2891" d="M109.632,367.635a2.182,2.182,0,1,0,.639-1.543A2.1,2.1,0,0,0,109.632,367.635Z" transform="translate(-103.087 -345.817)" fill="#A0A0A0"/>
  </g>
</svg>
