<svg width="28" height="28" viewBox="0 0 28 28" fill="none" xmlns="http://www.w3.org/2000/svg">
<g id="Icon">
<circle id="Ellipse 13" cx="14" cy="14" r="13.4" stroke="#9A9A9A" stroke-width="1.2"/>
<g id="noun-configuration-3558643 1">
<path id="Vector" d="M14.0364 20C12.4121 20 11.0303 19.4188 9.89091 18.2563C8.75152 17.0938 8.18182 15.675 8.18182 14V13.8688L7.01818 15.0688L6 14.0188L8.90909 11.0188L11.8182 14.0188L10.8 15.0688L9.63636 13.8688V14C9.63636 15.25 10.0636 16.3125 10.9182 17.1875C11.7727 18.0625 12.8121 18.5 14.0364 18.5C14.3515 18.5 14.6606 18.4625 14.9636 18.3875C15.2667 18.3125 15.5636 18.2 15.8545 18.05L16.9455 19.175C16.4848 19.45 16.0121 19.6562 15.5273 19.7938C15.0424 19.9313 14.5455 20 14.0364 20ZM19.0909 16.9813L16.1818 13.9813L17.2 12.9313L18.3636 14.1313V14C18.3636 12.75 17.9364 11.6875 17.0818 10.8125C16.2273 9.9375 15.1879 9.5 13.9636 9.5C13.6485 9.5 13.3394 9.5375 13.0364 9.6125C12.7333 9.6875 12.4364 9.8 12.1455 9.95L11.0545 8.825C11.5152 8.55 11.9879 8.34375 12.4727 8.20625C12.9576 8.06875 13.4545 8 13.9636 8C15.5879 8 16.9697 8.58125 18.1091 9.74375C19.2485 10.9062 19.8182 12.325 19.8182 14V14.1313L20.9818 12.9313L22 13.9813L19.0909 16.9813Z" fill="#1E1E1E"/>
</g>
</g>
</svg>
