<svg width="25" height="24" viewBox="0 0 25 24" fill="none" xmlns="http://www.w3.org/2000/svg">
<g clip-path="url(#clip0_chart)">
<!-- Bar chart icon (smaller, centered in circle) -->
<path d="M7.63672 16H9.63672V11H7.63672V16ZM11.6367 16H13.6367V8H11.6367V16ZM15.6367 16H17.6367V13H15.6367V16Z" fill="#f40009"/>
<!-- Circle border -->
<path fill-rule="evenodd" clip-rule="evenodd" d="M12.6367 1.23855C18.5767 1.23855 23.3982 6.05371 23.3982 12C23.3982 17.9463 18.583 22.7615 12.6367 22.7615C6.69043 22.7615 1.87527 17.94 1.87527 12C1.87527 6.06003 6.69043 1.23855 12.6367 1.23855ZM12.6367 0C19.2655 0 24.6367 5.37125 24.6367 12C24.6367 18.6288 19.2655 24 12.6367 24C6.00797 24 0.636719 18.6224 0.636719 12C0.636719 5.37757 6.00797 0 12.6367 0Z" fill="#f40009"/>
</g>
<defs>
<clipPath id="clip0_chart">
<rect width="24" height="24" fill="white" transform="translate(0.636719)"/>
</clipPath>
</defs>
</svg>

