<svg width="18" height="21" viewBox="0 0 18 21" fill="none" xmlns="http://www.w3.org/2000/svg">
<g clip-path="url(#clip0_12408_161606)">
<path d="M15.3633 5.13521C13.6644 3.43633 11.4037 2.5 8.99925 2.5C6.59476 2.5 4.33558 3.43633 2.6367 5.13521C0.93633 6.83558 0 9.09625 0 11.4993C0 13.9022 0.93633 16.1629 2.6367 17.8633C4.33708 19.5637 6.59626 20.4985 9.00075 20.4985C11.4052 20.4985 13.6644 19.5622 15.3648 17.8633C17.0652 16.1629 18.0015 13.9037 18.0015 11.4993C18.0015 9.09476 17.0652 6.83558 15.3648 5.13521H15.3633Z" fill="#E4E4E4"/>
<path d="M4.80341 17.4797C4.57015 17.5352 4.36744 17.4769 4.19527 17.3047C4.0231 17.1326 3.96478 16.9298 4.02032 16.6966L4.68678 13.5142L7.98578 16.8132L4.80341 17.4797ZM7.98578 16.8132L4.68678 13.5142L12.3178 5.88322C12.5733 5.62774 12.8898 5.5 13.2675 5.5C13.6452 5.5 13.9617 5.62774 14.2172 5.88322L15.6168 7.28279C15.8723 7.53827 16 7.85484 16 8.2325C16 8.61016 15.8723 8.92673 15.6168 9.18221L7.98578 16.8132ZM13.2675 6.81627L6.3696 13.7142L7.78584 15.1304L14.6837 8.2325L13.2675 6.81627Z" fill="#707070"/>
</g>
<defs>
<clipPath id="clip0_12408_161606">
<rect width="18" height="19.9985" fill="white" transform="translate(0 0.5)"/>
</clipPath>
</defs>
</svg>
