<svg width="17" height="16" viewBox="0 0 17 16" fill="none" xmlns="http://www.w3.org/2000/svg">
<path d="M1.67344 3.29534V3.28284H1.66094H0.5125V1.11095H5.58669H5.59919V1.09845V0.0125H11.3761V1.09845V1.11095H11.3886H16.4875V3.28284H15.3391H15.3266V3.29534V13.8031C15.3266 14.4117 15.1028 14.9276 14.6547 15.3515C14.2066 15.7755 13.661 15.9875 13.0172 15.9875H3.98283C3.33896 15.9875 2.79337 15.7755 2.34529 15.3515C1.89725 14.9276 1.67344 14.4117 1.67344 13.8031V3.29534ZM13.0297 3.29534V3.28284H13.0172H3.98283H3.97033V3.29534V13.8031V13.8156H3.98283H13.0172H13.0297V13.8031V3.29534ZM7.67331 4.82514V12.2613H5.66118V4.82514H7.67331ZM11.3388 4.82514V12.2613H9.3267V4.82514H11.3388Z" fill="#ED0000" stroke="#ED0000" stroke-width="0.025"/>
</svg>
