<svg width="28" height="28" viewBox="0 0 28 28" fill="none" xmlns="http://www.w3.org/2000/svg">
<g id="Icon">
<circle id="Ellipse 13" cx="14" cy="14" r="13.4" stroke="#9A9A9A" stroke-width="1.2"/>
<g id="noun-configuration-3558643 1">
<path id="Vector" d="M9.75714 20.7031C9.41143 20.7031 9.11548 20.5758 8.86929 20.3212C8.6231 20.0667 8.5 19.7606 8.5 19.4031V9.00312C8.5 8.64562 8.6231 8.33958 8.86929 8.085C9.11548 7.83042 9.41143 7.70312 9.75714 7.70312H14.7857L18.5571 11.6031V14.4306C18.3581 14.3548 18.1538 14.2979 17.9443 14.26C17.7348 14.2221 17.52 14.2031 17.3 14.2031V12.2531H14.1571V9.00312H9.75714V19.4031H13.7486C13.8324 19.6523 13.9371 19.8852 14.0629 20.1019C14.1886 20.3185 14.3352 20.519 14.5029 20.7031H9.75714ZM15.98 20.3781L15.1 19.4681L16.42 18.1031L15.1 16.7381L15.98 15.8281L17.3 17.1931L18.62 15.8281L19.5 16.7381L18.1957 18.1031L19.5 19.4681L18.62 20.3781L17.3 19.0294L15.98 20.3781Z" fill="#1E1E1E"/>
</g>
</g>
</svg>
