<svg width="28" height="28" viewBox="0 0 28 28" fill="none" xmlns="http://www.w3.org/2000/svg">
<circle cx="14" cy="14" r="13.4" stroke="#ED0000" stroke-width="1.2"/>
<path d="M9.75714 20.7C9.41143 20.7 9.11548 20.5727 8.86929 20.3181C8.6231 20.0635 8.5 19.7575 8.5 19.4V8.99995C8.5 8.64245 8.6231 8.33641 8.86929 8.08183C9.11548 7.82724 9.41143 7.69995 9.75714 7.69995H14.7857L18.5571 11.6V14.4275C18.3581 14.3516 18.1538 14.2947 17.9443 14.2568C17.7348 14.2189 17.52 14.2 17.3 14.2V12.25H14.1571V8.99995H9.75714V19.4H13.7486C13.8324 19.6491 13.9371 19.882 14.0629 20.0987C14.1886 20.3154 14.3352 20.5158 14.5029 20.7H9.75714ZM15.98 20.375L15.1 19.465L16.42 18.1L15.1 16.735L15.98 15.825L17.3 17.19L18.62 15.825L19.5 16.735L18.1957 18.1L19.5 19.465L18.62 20.375L17.3 19.0262L15.98 20.375Z" fill="#ED0000"/>
</svg>
