<svg xmlns="http://www.w3.org/2000/svg" width="14" height="14" viewBox="0 0 14 14" fill="none">
<path d="M8.65015 6.99854L13.6589 1.99084C14.1137 1.53612 14.1137 0.795753 13.6589 0.341037C13.2041 -0.113679 12.4636 -0.113679 12.0087 0.341037L7 5.34874L1.99126 0.341037C1.53644 -0.113679 0.795918 -0.113679 0.341108 0.341037C-0.113703 0.795753 -0.113703 1.53612 0.341108 1.99084L5.34985 6.99854L0.341108 12.0062C-0.113703 12.461 -0.113703 13.2013 0.341108 13.656C0.568513 13.8834 0.865892 14 1.16327 14C1.46064 14 1.75801 13.8834 1.98542 13.656L6.99417 8.64834L12.0029 13.656C12.2303 13.8834 12.5277 14 12.8251 14C13.1225 14 13.4198 13.8834 13.6472 13.656C14.102 13.2013 14.102 12.461 13.6472 12.0062L8.65015 6.99854Z" fill="#1E1E1E"/>
</svg>