<svg width="16" height="16" viewBox="0 0 16 16" fill="none" xmlns="http://www.w3.org/2000/svg">
<g id="Close_Cancel">
<path id="&#226;&#128;&#162;" d="M9.41441 7.99875L13.7076 3.70643C14.0975 3.31668 14.0975 2.68207 13.7076 2.29232C13.3178 1.90256 12.683 1.90256 12.2932 2.29232L8 6.58463L3.70679 2.29232C3.31695 1.90256 2.68222 1.90256 2.29238 2.29232C1.90254 2.68207 1.90254 3.31668 2.29238 3.70643L6.58559 7.99875L2.29238 12.2911C1.90254 12.6808 1.90254 13.3154 2.29238 13.7052C2.4873 13.9001 2.74219 14 2.99709 14C3.25198 14 3.50687 13.9001 3.70179 13.7052L7.995 9.41287L12.2882 13.7052C12.4831 13.9001 12.738 14 12.9929 14C13.2478 14 13.5027 13.9001 13.6976 13.7052C14.0875 13.3154 14.0875 12.6808 13.6976 12.2911L9.41441 7.99875Z" fill="#9A9A9A"/>
</g>
</svg>
