<svg width="20" height="17" viewBox="0 0 20 17" fill="none" xmlns="http://www.w3.org/2000/svg">
<path d="M10 9.3129L2.0125 4.32071V2.35019L9.99337 7.33824L9.98488 7.35183L10.0066 7.33824L18.0066 2.33824L18.0436 2.31514H18H2H1.95642L1.9875 2.33456V4.30508V4.32764V14.3276V14.3401H2H18H18.0125V14.3276V4.32764V4.30508L17.9934 4.31704L10 9.3129ZM2 16.3151C1.45334 16.3151 0.98568 16.1206 0.596339 15.7313C0.206998 15.342 0.0125 14.8743 0.0125 14.3276V2.32764C0.0125 1.78098 0.206998 1.31332 0.596339 0.923976C0.98568 0.534634 1.45334 0.340137 2 0.340137H18C18.5467 0.340137 19.0143 0.534634 19.4037 0.923976C19.793 1.31332 19.9875 1.78098 19.9875 2.32764V14.3276C19.9875 14.8743 19.793 15.342 19.4037 15.7313C19.0143 16.1206 18.5467 16.3151 18 16.3151H2Z" fill="white" stroke="white" stroke-width="0.025"/>
</svg>
