<svg width="26" height="26" viewBox="0 0 26 26" fill="none" xmlns="http://www.w3.org/2000/svg">
<g id="noun-configuration-3558643 1">
<g id="Group 1171275224">
<path id="Vector" d="M21.9726 7.16905L16.6859 2.23537C16.5824 2.14045 16.4575 2.072 16.3218 2.03588C16.1861 1.99977 16.0437 1.99707 15.9067 2.028V2H11.1673C10.162 2.00116 9.19821 2.40102 8.48736 3.11187C7.77651 3.82272 7.37665 4.78651 7.37549 5.7918V16C7.37665 17.0052 7.77651 17.969 8.48736 18.6799C9.19821 19.3907 10.162 19.7906 11.1673 19.7918H18.4586C19.4639 19.7906 20.4277 19.3907 21.1386 18.6799C21.8494 17.969 22.2493 17.0052 22.2504 16V7.97929H22.2238C22.2548 7.83404 22.2479 7.68325 22.204 7.54138C22.16 7.39952 22.0803 7.27131 21.9726 7.16905ZM20.5004 16C20.4999 16.5413 20.2846 17.0603 19.9018 17.4431C19.519 17.8259 19 18.0412 18.4586 18.0418H11.1673C10.6259 18.0412 10.1069 17.8259 9.72415 17.4431C9.34137 17.0603 9.12606 16.5413 9.12548 16V5.7918C9.12606 5.25046 9.34137 4.73145 9.72415 4.34867C10.1069 3.96588 10.6259 3.75057 11.1673 3.74999H15.2142V5.69424C15.215 6.48684 15.5302 7.24674 16.0906 7.80719C16.6511 8.36764 17.411 8.68286 18.2036 8.68367H20.5004V16Z" fill="#1E1E1E"/>
<path id="Vector_2" d="M3.87549 18.6247C3.87676 19.7847 4.33811 20.8967 5.1583 21.7169C5.97849 22.5371 7.09055 22.9984 8.25047 22.9997H17.0004C17.2325 22.9997 17.4551 22.9075 17.6192 22.7434C17.7833 22.5793 17.8754 22.3568 17.8754 22.1247C17.8754 21.8926 17.7833 21.6701 17.6192 21.506C17.4551 21.3419 17.2325 21.2497 17.0004 21.2497H8.25047C7.5545 21.249 6.88722 20.9722 6.39509 20.4801C5.90296 19.988 5.62618 19.3207 5.62548 18.6247V8.56225C5.62548 8.33019 5.5333 8.10763 5.3692 7.94354C5.20511 7.77944 4.98255 7.68726 4.75049 7.68726C4.51842 7.68726 4.29586 7.77944 4.13177 7.94354C3.96768 8.10763 3.87549 8.33019 3.87549 8.56225V18.6247Z" fill="#1E1E1E"/>
</g>
</g>
</svg>
