<svg width="26" height="26" viewBox="0 0 26 26" fill="none" xmlns="http://www.w3.org/2000/svg">
<g id="noun-configuration-3558643 2">
<g id="Layer 2">
<path id="Vector" d="M20.8571 22.9999H9.4285C8.86037 22.9993 8.31569 22.7733 7.91396 22.3716C7.51223 21.9699 7.28627 21.4252 7.28564 20.8571V9.4285C7.28627 8.86037 7.51223 8.31569 7.91396 7.91396C8.31569 7.51223 8.86037 7.28627 9.4285 7.28564H20.8571C21.4252 7.28627 21.9699 7.51223 22.3716 7.91396C22.7733 8.31569 22.9993 8.86037 22.9999 9.4285V20.8571C22.9993 21.4252 22.7733 21.9699 22.3716 22.3716C21.9699 22.7733 21.4252 22.9993 20.8571 22.9999ZM9.4285 8.71422C9.2391 8.71433 9.05748 8.78962 8.92355 8.92355C8.78962 9.05748 8.71433 9.2391 8.71422 9.4285V20.8571C8.71433 21.0465 8.78962 21.2281 8.92355 21.362C9.05748 21.496 9.2391 21.5712 9.4285 21.5714H20.8571C21.0465 21.5712 21.2281 21.496 21.362 21.362C21.496 21.2281 21.5712 21.0465 21.5714 20.8571V9.4285C21.5712 9.2391 21.496 9.05748 21.362 8.92355C21.2281 8.78962 21.0465 8.71433 20.8571 8.71422H9.4285Z" fill="#ED0000" stroke="#ED0000" stroke-width="0.2"/>
<path id="Vector_2" d="M5.14286 18.7143C4.57473 18.7137 4.03005 18.4877 3.62832 18.086C3.22659 17.6842 3.00062 17.1396 3 16.5714V5.14286C3.00062 4.57473 3.22659 4.03005 3.62832 3.62832C4.03005 3.22659 4.57473 3.00062 5.14286 3H16.5714C17.1396 3.00062 17.6842 3.22659 18.086 3.62832C18.4877 4.03005 18.7137 4.57473 18.7143 5.14286C18.7143 5.3323 18.639 5.51398 18.5051 5.64793C18.3711 5.78189 18.1894 5.85714 18 5.85714C17.8106 5.85714 17.6289 5.78189 17.4949 5.64793C17.361 5.51398 17.2857 5.3323 17.2857 5.14286C17.2856 4.95345 17.2103 4.77184 17.0764 4.63791C16.9425 4.50398 16.7608 4.42868 16.5714 4.42857H5.14286C4.95345 4.42868 4.77184 4.50398 4.63791 4.63791C4.50398 4.77184 4.42868 4.95345 4.42857 5.14286V16.5714C4.42868 16.7608 4.50398 16.9425 4.63791 17.0764C4.77184 17.2103 4.95345 17.2856 5.14286 17.2857C5.3323 17.2857 5.51398 17.361 5.64793 17.4949C5.78189 17.6289 5.85714 17.8106 5.85714 18C5.85714 18.1894 5.78189 18.3711 5.64793 18.5051C5.51398 18.639 5.3323 18.7143 5.14286 18.7143Z" fill="#ED0000" stroke="#ED0000" stroke-width="0.2"/>
<path id="Vector_3" d="M18.1731 16.8669C18.0318 16.8668 17.8936 16.8249 17.7761 16.7463C17.6586 16.6678 17.5671 16.5561 17.5131 16.4255C17.4591 16.2948 17.4451 16.1511 17.4728 16.0125C17.5005 15.8739 17.5687 15.7467 17.6688 15.6469L17.922 15.3943C18.121 15.1952 18.2788 14.9589 18.3864 14.6989C18.4941 14.4389 18.5495 14.1602 18.5494 13.8787C18.5494 13.5973 18.4939 13.3186 18.3861 13.0586C18.2784 12.7986 18.1205 12.5623 17.9214 12.3634C17.7224 12.1644 17.4861 12.0066 17.226 11.8989C16.966 11.7913 16.6873 11.7359 16.4058 11.7359C16.1244 11.736 15.8457 11.7915 15.5857 11.8992C15.3257 12.007 15.0895 12.1649 14.8905 12.3639L14.6386 12.6164C14.5042 12.7472 14.3237 12.8199 14.1361 12.8187C13.9486 12.8176 13.769 12.7427 13.6362 12.6102C13.5034 12.4778 13.428 12.2984 13.4263 12.1108C13.4246 11.9233 13.4968 11.7426 13.6272 11.6078L13.8797 11.3546C14.5494 10.6847 15.4577 10.3083 16.4049 10.3081C17.3522 10.308 18.2606 10.6841 18.9305 11.3538C19.6004 12.0234 19.9768 12.9318 19.977 13.879C19.9771 14.8262 19.601 15.7347 18.9313 16.4046L18.6774 16.6578C18.6112 16.7241 18.5326 16.7767 18.4461 16.8125C18.3596 16.8484 18.2668 16.8669 18.1731 16.8669Z" fill="#ED0000" stroke="#ED0000" stroke-width="0.2"/>
<path id="Vector_4" d="M13.8802 19.9756C13.1739 19.976 12.4833 19.7668 11.8958 19.3746C11.3084 18.9824 10.8505 18.4247 10.5801 17.7722C10.3097 17.1197 10.2389 16.4016 10.3767 15.7088C10.5146 15.0161 10.8548 14.3797 11.3544 13.8804L11.6083 13.6272C11.7431 13.4968 11.9238 13.4246 12.1114 13.4263C12.2989 13.428 12.4783 13.5034 12.6108 13.6362C12.7432 13.769 12.8181 13.9486 12.8193 14.1361C12.8204 14.3237 12.7478 14.5042 12.617 14.6386L12.3638 14.8912C11.9619 15.2932 11.7362 15.8384 11.7363 16.4068C11.7364 16.6882 11.7919 16.9669 11.8996 17.2269C12.0074 17.4869 12.1653 17.7232 12.3643 17.9221C12.5634 18.1211 12.7997 18.2789 13.0597 18.3866C13.3198 18.4942 13.5985 18.5496 13.8799 18.5496C14.4483 18.5495 14.9934 18.3236 15.3953 17.9216L15.6471 17.6691C15.7816 17.5383 15.9621 17.4656 16.1496 17.4668C16.3372 17.4679 16.5168 17.5428 16.6496 17.6753C16.7824 17.8077 16.8578 17.9871 16.8595 18.1746C16.8611 18.3622 16.789 18.5429 16.6586 18.6777L16.406 18.9309C16.0746 19.2628 15.6808 19.526 15.2474 19.7053C14.8139 19.8845 14.3493 19.9764 13.8802 19.9756Z" fill="#ED0000" stroke="#ED0000" stroke-width="0.2"/>
<path id="Vector_5" d="M14.3861 16.6144C14.2448 16.6144 14.1067 16.5725 13.9893 16.494C13.8719 16.4155 13.7803 16.304 13.7263 16.1735C13.6722 16.043 13.658 15.8994 13.6856 15.7608C13.7131 15.6223 13.7811 15.495 13.881 15.3951L15.9011 13.375C16.0356 13.2439 16.2164 13.1711 16.4043 13.1724C16.5922 13.1736 16.772 13.2489 16.9048 13.3818C17.0376 13.5146 17.1127 13.6945 17.1138 13.8824C17.1149 14.0702 17.042 14.251 16.9108 14.3855L14.8907 16.4055C14.8245 16.4719 14.7458 16.5244 14.6592 16.5603C14.5726 16.5961 14.4798 16.6145 14.3861 16.6144Z" fill="#ED0000" stroke="#ED0000" stroke-width="0.2"/>
</g>
</g>
</svg>
