<svg width="26" height="26" viewBox="0 0 26 26" fill="none" xmlns="http://www.w3.org/2000/svg">
<g id="noun-configuration-3558643 1">
<g id="Layer 2">
<path id="Vector" d="M20.8576 23.0033H9.42899C8.86086 23.0027 8.31618 22.7768 7.91445 22.375C7.51272 21.9733 7.28676 21.4286 7.28613 20.8605V9.43192C7.28676 8.86379 7.51272 8.31911 7.91445 7.91738C8.31618 7.51565 8.86086 7.28969 9.42899 7.28906H20.8576C21.4257 7.28969 21.9704 7.51565 22.3721 7.91738C22.7738 8.31911 22.9998 8.86379 23.0004 9.43192V20.8605C22.9998 21.4286 22.7738 21.9733 22.3721 22.375C21.9704 22.7768 21.4257 23.0027 20.8576 23.0033ZM9.42899 8.71763C9.23958 8.71775 9.05797 8.79304 8.92404 8.92697C8.79011 9.0609 8.71482 9.24251 8.7147 9.43192V20.8605C8.71482 21.0499 8.79011 21.2315 8.92404 21.3654C9.05797 21.4994 9.23958 21.5747 9.42899 21.5748H20.8576C21.047 21.5747 21.2286 21.4994 21.3625 21.3654C21.4964 21.2315 21.5717 21.0499 21.5718 20.8605V9.43192C21.5717 9.24251 21.4964 9.0609 21.3625 8.92697C21.2286 8.79304 21.047 8.71775 20.8576 8.71763H9.42899Z" fill="#1E1E1E" stroke="#1E1E1E" stroke-width="0.2"/>
<path id="Vector_2" d="M5.14286 18.7143C4.57473 18.7137 4.03005 18.4877 3.62832 18.086C3.22659 17.6842 3.00062 17.1396 3 16.5714V5.14286C3.00062 4.57473 3.22659 4.03005 3.62832 3.62832C4.03005 3.22659 4.57473 3.00062 5.14286 3H16.5714C17.1396 3.00062 17.6842 3.22659 18.086 3.62832C18.4877 4.03005 18.7137 4.57473 18.7143 5.14286C18.7143 5.3323 18.639 5.51398 18.5051 5.64793C18.3711 5.78189 18.1894 5.85714 18 5.85714C17.8106 5.85714 17.6289 5.78189 17.4949 5.64793C17.361 5.51398 17.2857 5.3323 17.2857 5.14286C17.2856 4.95345 17.2103 4.77184 17.0764 4.63791C16.9425 4.50398 16.7608 4.42868 16.5714 4.42857H5.14286C4.95345 4.42868 4.77184 4.50398 4.63791 4.63791C4.50398 4.77184 4.42868 4.95345 4.42857 5.14286V16.5714C4.42868 16.7608 4.50398 16.9425 4.63791 17.0764C4.77184 17.2103 4.95345 17.2856 5.14286 17.2857C5.3323 17.2857 5.51398 17.361 5.64793 17.4949C5.78189 17.6289 5.85714 17.8106 5.85714 18C5.85714 18.1894 5.78189 18.3711 5.64793 18.5051C5.51398 18.639 5.3323 18.7143 5.14286 18.7143Z" fill="#1E1E1E" stroke="#1E1E1E" stroke-width="0.2"/>
<path id="Vector_3" d="M18.1726 16.8634C18.0313 16.8634 17.8931 16.8215 17.7756 16.7429C17.6582 16.6643 17.5666 16.5527 17.5126 16.422C17.4586 16.2914 17.4446 16.1477 17.4723 16.0091C17.5 15.8705 17.5682 15.7433 17.6683 15.6434L17.9215 15.3909C18.1205 15.1918 18.2783 14.9555 18.386 14.6955C18.4936 14.4354 18.549 14.1567 18.5489 13.8753C18.5489 13.5938 18.4934 13.3152 18.3856 13.0552C18.2779 12.7952 18.12 12.5589 17.9209 12.3599C17.7219 12.161 17.4856 12.0031 17.2255 11.8955C16.9655 11.7878 16.6868 11.7324 16.4053 11.7325C16.1239 11.7326 15.8452 11.788 15.5852 11.8958C15.3252 12.0036 15.089 12.1615 14.89 12.3605L14.6381 12.613C14.5037 12.7438 14.3232 12.8165 14.1356 12.8153C13.9481 12.8141 13.7685 12.7393 13.6357 12.6068C13.5029 12.4744 13.4275 12.295 13.4258 12.1074C13.4241 11.9199 13.4963 11.7392 13.6267 11.6044L13.8792 11.3512C14.5489 10.6813 15.4572 10.3048 16.4045 10.3047C17.3517 10.3045 18.2601 10.6807 18.93 11.3503C19.5999 12.02 19.9764 12.9284 19.9765 13.8756C19.9767 14.8228 19.6005 15.7313 18.9309 16.4012L18.6769 16.6544C18.6107 16.7207 18.5321 16.7732 18.4456 16.8091C18.3591 16.845 18.2663 16.8634 18.1726 16.8634Z" fill="#1E1E1E" stroke="#1E1E1E" stroke-width="0.2"/>
<path id="Vector_4" d="M13.8807 19.979C13.1743 19.9794 12.4837 19.7702 11.8963 19.378C11.3089 18.9858 10.851 18.4282 10.5806 17.7756C10.3102 17.1231 10.2394 16.405 10.3772 15.7122C10.5151 15.0195 10.8553 14.3832 11.3549 13.8838L11.6088 13.6306C11.7436 13.5002 11.9243 13.428 12.1119 13.4297C12.2994 13.4314 12.4788 13.5068 12.6113 13.6396C12.7437 13.7724 12.8186 13.952 12.8198 14.1395C12.8209 14.3271 12.7483 14.5076 12.6175 14.642L12.3643 14.8946C11.9624 15.2966 11.7367 15.8418 11.7368 16.4102C11.7369 16.6916 11.7924 16.9703 11.9001 17.2303C12.0079 17.4903 12.1658 17.7266 12.3648 17.9255C12.5639 18.1245 12.8002 18.2823 13.0602 18.39C13.3203 18.4977 13.599 18.553 13.8804 18.553C14.4488 18.5529 14.9939 18.327 15.3958 17.925L15.6476 17.6725C15.7821 17.5417 15.9625 17.469 16.1501 17.4702C16.3377 17.4713 16.5173 17.5462 16.6501 17.6787C16.7829 17.8111 16.8583 17.9905 16.8599 18.1781C16.8616 18.3656 16.7895 18.5463 16.659 18.6811L16.4065 18.9343C16.0751 19.2663 15.6813 19.5294 15.2478 19.7087C14.8144 19.888 14.3498 19.9798 13.8807 19.979Z" fill="#1E1E1E" stroke="#1E1E1E" stroke-width="0.2"/>
<path id="Vector_5" d="M14.3861 16.6139C14.2448 16.6139 14.1067 16.572 13.9893 16.4935C13.8719 16.415 13.7803 16.3035 13.7263 16.173C13.6722 16.0425 13.658 15.8989 13.6856 15.7603C13.7131 15.6218 13.7811 15.4945 13.881 15.3946L15.9011 13.3746C16.0356 13.2434 16.2164 13.1706 16.4043 13.1719C16.5922 13.1731 16.772 13.2484 16.9048 13.3813C17.0376 13.5142 17.1127 13.694 17.1138 13.8819C17.1149 14.0698 17.042 14.2505 16.9108 14.385L14.8907 16.4051C14.8245 16.4714 14.7458 16.524 14.6592 16.5598C14.5726 16.5956 14.4798 16.614 14.3861 16.6139Z" fill="#1E1E1E" stroke="#1E1E1E" stroke-width="0.2"/>
</g>
</g>
</svg>
