<svg width="26" height="26" viewBox="0 0 26 26" fill="none" xmlns="http://www.w3.org/2000/svg">
<g id="noun-configuration-3558643 1">
<g id="Group 1171275224">
<path id="Vector" d="M21.9725 7.16917L16.6856 2.23538C16.5821 2.14045 16.4572 2.072 16.3215 2.03589C16.1858 1.99977 16.0434 1.99707 15.9064 2.028V2H11.1669C10.1616 2.00116 9.19776 2.40103 8.4869 3.1119C7.77603 3.82276 7.37616 4.78657 7.375 5.79189V16.0003C7.37616 17.0056 7.77603 17.9694 8.4869 18.6803C9.19776 19.3911 10.1616 19.791 11.1669 19.7922H18.4584C19.4637 19.791 20.4275 19.3911 21.1384 18.6803C21.8493 17.9694 22.2491 17.0056 22.2503 16.0003V7.97943H22.2236C22.2546 7.83417 22.2478 7.68339 22.2038 7.54151C22.1599 7.39964 22.0802 7.27143 21.9725 7.16917ZM20.5003 16.0003C20.4997 16.5416 20.2844 17.0607 19.9016 17.4435C19.5188 17.8262 18.9998 18.0416 18.4584 18.0421H11.1669C10.6255 18.0416 10.1065 17.8262 9.72372 17.4435C9.34092 17.0607 9.12561 16.5416 9.12504 16.0003V5.79189C9.12561 5.25053 9.34092 4.73152 9.72372 4.34872C10.1065 3.96592 10.6255 3.75061 11.1669 3.75004H15.2138V5.69432C15.2147 6.48694 15.5299 7.24686 16.0903 7.80732C16.6508 8.36779 17.4107 8.68301 18.2033 8.68382H20.5003V16.0003Z" fill="#ED0000"/>
<path id="Vector_2" d="M3.875 18.6247C3.87627 19.7847 4.33763 20.8968 5.15784 21.717C5.97805 22.5372 7.09013 22.9985 8.25009 22.9998H17.0003C17.2323 22.9998 17.4549 22.9076 17.619 22.7435C17.7831 22.5794 17.8753 22.3569 17.8753 22.1248C17.8753 21.8927 17.7831 21.6702 17.619 21.5061C17.4549 21.342 17.2323 21.2498 17.0003 21.2498H8.25009C7.55409 21.2491 6.88681 20.9723 6.39466 20.4802C5.90252 19.988 5.62573 19.3207 5.62504 18.6247V8.56203C5.62504 8.32996 5.53285 8.1074 5.36875 7.9433C5.20465 7.7792 4.98209 7.68701 4.75002 7.68701C4.51795 7.68701 4.29538 7.7792 4.13129 7.9433C3.96719 8.1074 3.875 8.32996 3.875 8.56203V18.6247Z" fill="#ED0000"/>
</g>
</g>
</svg>
