<svg width="42" height="43" viewBox="0 0 42 43" fill="none" xmlns="http://www.w3.org/2000/svg">
<g id="Download-Icon">
<circle id="Ellipse 13" cx="21" cy="21.6172" r="20.25" stroke="#9A9A9A" stroke-width="1.5"/>
<g id="noun-configuration-3558643 1">
<g id="Group">
<path id="Vector" d="M29.6539 15.2044C29.5116 14.9581 29.2483 14.8055 28.9636 14.8055L24.9774 14.8064V14.0095C24.9774 13.3754 24.7252 12.7669 24.2769 12.3186C23.8286 11.8694 23.2209 11.6172 22.5859 11.6172H17.803C17.1689 11.6172 16.5604 11.8694 16.1121 12.3177C15.6638 12.766 15.4115 13.3746 15.4115 14.0087V14.8055L11.7971 14.8064C11.5124 14.8064 11.2491 14.9581 11.1067 15.2052C10.9644 15.4515 10.9644 15.7558 11.1067 16.0021C11.2491 16.2484 11.5124 16.401 11.7971 16.401H12.2224V28.3593C12.2232 29.4161 12.6443 30.4295 13.3917 31.176C14.1391 31.9235 15.1516 32.3436 16.2084 32.3453H24.1806C25.2374 32.3445 26.2507 31.9235 26.9973 31.176C27.7447 30.4286 28.1649 29.4161 28.1666 28.3593V16.401H28.9635C29.2481 16.401 29.5115 16.2493 29.6538 16.0021C29.7962 15.7549 29.7963 15.4515 29.6539 15.2044ZM17.0062 14.0086C17.0062 13.7973 17.0905 13.5944 17.2397 13.4453C17.3888 13.2961 17.5917 13.2118 17.803 13.2118H22.586C22.7974 13.2118 23.0002 13.2961 23.1494 13.4453C23.2985 13.5944 23.3829 13.7973 23.3829 14.0086V14.8055L17.0061 14.8064L17.0062 14.0086ZM26.5721 28.3585C26.5721 28.9925 26.3199 29.6011 25.8716 30.0494C25.4233 30.4977 24.8147 30.7499 24.1807 30.7499H16.2085C15.5744 30.7499 14.9659 30.4977 14.5176 30.0494C14.0693 29.6011 13.817 28.9925 13.817 28.3585V16.4001H26.5722L26.5721 28.3585Z" fill="#1E1E1E"/>
<path id="Vector_2" d="M17.4039 27.4506C17.6502 27.5929 17.9544 27.5929 18.2007 27.4506C18.447 27.3083 18.5996 27.0449 18.5996 26.7603V20.3828C18.5996 20.1714 18.5152 19.9686 18.3661 19.8195C18.2169 19.6703 18.0141 19.5859 17.8027 19.5859C17.5914 19.5859 17.3885 19.6703 17.2394 19.8195C17.0902 19.9686 17.0059 20.1714 17.0059 20.3828V26.7603C17.0059 27.0458 17.1576 27.3083 17.4039 27.4506Z" fill="#1E1E1E"/>
<path id="Vector_3" d="M22.188 27.4506C22.4344 27.5929 22.7386 27.5929 22.9849 27.4506C23.2312 27.3083 23.3838 27.0449 23.3838 26.7603V20.3828C23.3838 20.1714 23.2994 19.9686 23.1503 19.8195C23.0011 19.6703 22.7983 19.5859 22.5869 19.5859C22.3756 19.5859 22.1727 19.6703 22.0236 19.8195C21.8744 19.9686 21.79 20.1714 21.79 20.3828V26.7603C21.7892 27.0458 21.9409 27.3083 22.188 27.4506Z" fill="#1E1E1E"/>
</g>
</g>
</g>
</svg>