<svg width="42" height="42" viewBox="0 0 42 42" fill="none" xmlns="http://www.w3.org/2000/svg">
<circle cx="21" cy="21" r="20.25" stroke="#ED0000" stroke-width="1.5"/>
<path d="M29.6539 14.5872C29.5116 14.3409 29.2483 14.1883 28.9636 14.1883L24.9774 14.1892V13.3923C24.9774 12.7582 24.7252 12.1497 24.2769 11.7014C23.8286 11.2523 23.2209 11 22.5859 11H17.803C17.1689 11 16.5604 11.2523 16.1121 11.7006C15.6638 12.1489 15.4115 12.7574 15.4115 13.3915V14.1883L11.7971 14.1892C11.5124 14.1892 11.2491 14.3409 11.1067 14.588C10.9644 14.8344 10.9644 15.1386 11.1067 15.3849C11.2491 15.6312 11.5124 15.7838 11.7971 15.7838H12.2224V27.7421C12.2232 28.7989 12.6443 29.8123 13.3917 30.5588C14.1391 31.3063 15.1516 31.7264 16.2084 31.7281H24.1806C25.2374 31.7273 26.2507 31.3063 26.9973 30.5588C27.7447 29.8114 28.1649 28.7989 28.1666 27.7421V15.7838H28.9635C29.2482 15.7838 29.5115 15.6321 29.6538 15.3849C29.7962 15.1378 29.7963 14.8343 29.6539 14.5872ZM17.0062 13.3914C17.0062 13.1801 17.0905 12.9772 17.2397 12.8281C17.3888 12.679 17.5917 12.5946 17.803 12.5946H22.586C22.7974 12.5946 23.0002 12.679 23.1494 12.8281C23.2985 12.9772 23.3829 13.1801 23.3829 13.3914V14.1883L17.0061 14.1892L17.0062 13.3914ZM26.5721 27.7413C26.5721 28.3753 26.3199 28.9839 25.8716 29.4322C25.4233 29.8805 24.8147 30.1327 24.1807 30.1327H16.2085C15.5744 30.1327 14.9659 29.8805 14.5176 29.4322C14.0693 28.9839 13.817 28.3753 13.817 27.7413V15.7829H26.5722L26.5721 27.7413Z" fill="#ED0000"/>
<path d="M17.4044 26.8371C17.6507 26.9794 17.9549 26.9794 18.2012 26.8371C18.4475 26.6948 18.6001 26.4314 18.6001 26.1467V19.7693C18.6001 19.5579 18.5157 19.3551 18.3666 19.2059C18.2174 19.0568 18.0146 18.9724 17.8032 18.9724C17.5919 18.9724 17.389 19.0568 17.2399 19.2059C17.0907 19.3551 17.0063 19.5579 17.0063 19.7693V26.1467C17.0063 26.4322 17.1581 26.6947 17.4044 26.8371Z" fill="#ED0000"/>
<path d="M22.188 26.8371C22.4344 26.9794 22.7386 26.9794 22.9849 26.8371C23.2312 26.6948 23.3838 26.4314 23.3838 26.1467V19.7693C23.3838 19.5579 23.2994 19.3551 23.1503 19.2059C23.0011 19.0568 22.7983 18.9724 22.5869 18.9724C22.3756 18.9724 22.1727 19.0568 22.0236 19.2059C21.8744 19.3551 21.79 19.5579 21.79 19.7693V26.1467C21.7892 26.4322 21.9409 26.6947 22.188 26.8371Z" fill="#ED0000"/>
</svg>
