<svg width="26" height="26" viewBox="0 0 26 26" fill="none" xmlns="http://www.w3.org/2000/svg">
<g id="noun-configuration-3558643 1">
<g id="Group 1171275225">
<g id="Group">
<path id="Vector" d="M21.6539 6.58719C21.5116 6.34089 21.2483 6.18833 20.9636 6.18833L16.9774 6.18919V5.39232C16.9774 4.75824 16.7252 4.14971 16.2769 3.70141C15.8286 3.25226 15.2209 3 14.5859 3H9.80297C9.16888 3 8.56035 3.25226 8.11206 3.70056C7.66376 4.14886 7.4115 4.75739 7.4115 5.39147V6.18833L3.7971 6.18919C3.51243 6.18919 3.24909 6.34089 3.10675 6.58805C2.96442 6.83435 2.96442 7.13861 3.10675 7.38491C3.24908 7.63122 3.51243 7.78377 3.7971 7.78377H4.22238V19.7421C4.22323 20.7989 4.64425 21.8123 5.3917 22.5588C6.13915 23.3063 7.15164 23.7264 8.20843 23.7281H16.1806C17.2374 23.7273 18.2507 23.3063 18.9973 22.5588C19.7447 21.8114 20.1649 20.7989 20.1666 19.7421V7.78377H20.9635C21.2481 7.78377 21.5115 7.63207 21.6538 7.38491C21.7962 7.13775 21.7963 6.83435 21.6539 6.58719ZM9.00617 5.39145C9.00617 5.18008 9.09054 4.97725 9.23969 4.8281C9.38883 4.67895 9.59168 4.59458 9.80303 4.59458H14.586C14.7974 4.59458 15.0002 4.67896 15.1494 4.8281C15.2985 4.97725 15.3829 5.18009 15.3829 5.39145V6.18831L9.00608 6.18916L9.00617 5.39145ZM18.5721 19.7413C18.5721 20.3753 18.3199 20.9839 17.8716 21.4322C17.4233 21.8805 16.8147 22.1327 16.1807 22.1327H8.20851C7.57443 22.1327 6.9659 21.8805 6.51761 21.4322C6.06931 20.9839 5.81704 20.3753 5.81704 19.7413V7.78294H18.5722L18.5721 19.7413Z" fill="#ED0000"/>
<path id="Vector_2" d="M9.40435 18.8368C9.65066 18.9792 9.95491 18.9792 10.2012 18.8368C10.4475 18.6945 10.6001 18.4311 10.6001 18.1465V11.769C10.6001 11.5577 10.5157 11.3548 10.3666 11.2057C10.2174 11.0565 10.0146 10.9722 9.80321 10.9722C9.59186 10.9722 9.38902 11.0565 9.23987 11.2057C9.09072 11.3548 9.00635 11.5577 9.00635 11.769V18.1465C9.00635 18.432 9.15805 18.6945 9.40435 18.8368Z" fill="#ED0000"/>
<path id="Vector_3" d="M14.188 18.8368C14.4344 18.9792 14.7386 18.9792 14.9849 18.8368C15.2312 18.6945 15.3838 18.4311 15.3838 18.1465V11.769C15.3838 11.5577 15.2994 11.3548 15.1503 11.2057C15.0011 11.0565 14.7983 10.9722 14.5869 10.9722C14.3756 10.9722 14.1727 11.0565 14.0236 11.2057C13.8744 11.3548 13.79 11.5577 13.79 11.769V18.1465C13.7892 18.432 13.9409 18.6945 14.188 18.8368Z" fill="#ED0000"/>
</g>
</g>
</g>
</svg>
