<svg width="42" height="42" viewBox="0 0 42 42" fill="none" xmlns="http://www.w3.org/2000/svg">
<circle cx="21" cy="21" r="20.25" stroke="#9A9A9A" stroke-width="1.5"/>
<path d="M29.6539 14.5872C29.5116 14.3409 29.2483 14.1883 28.9636 14.1883L24.9774 14.1892V13.3923C24.9774 12.7582 24.7252 12.1497 24.2769 11.7014C23.8286 11.2523 23.2209 11 22.5859 11H17.803C17.1689 11 16.5604 11.2523 16.1121 11.7006C15.6638 12.1489 15.4115 12.7574 15.4115 13.3915V14.1883L11.7971 14.1892C11.5124 14.1892 11.2491 14.3409 11.1067 14.588C10.9644 14.8344 10.9644 15.1386 11.1067 15.3849C11.2491 15.6312 11.5124 15.7838 11.7971 15.7838H12.2224V27.7421C12.2232 28.7989 12.6443 29.8123 13.3917 30.5588C14.1391 31.3063 15.1516 31.7264 16.2084 31.7281H24.1806C25.2374 31.7273 26.2507 31.3063 26.9973 30.5588C27.7447 29.8114 28.1649 28.7989 28.1666 27.7421V15.7838H28.9635C29.2481 15.7838 29.5115 15.6321 29.6538 15.3849C29.7962 15.1378 29.7963 14.8343 29.6539 14.5872ZM17.0062 13.3914C17.0062 13.1801 17.0905 12.9772 17.2397 12.8281C17.3888 12.679 17.5917 12.5946 17.803 12.5946H22.586C22.7974 12.5946 23.0002 12.679 23.1494 12.8281C23.2985 12.9772 23.3829 13.1801 23.3829 13.3914V14.1883L17.0061 14.1892L17.0062 13.3914ZM26.5721 27.7413C26.5721 28.3753 26.3199 28.9839 25.8716 29.4322C25.4233 29.8805 24.8147 30.1327 24.1807 30.1327H16.2085C15.5744 30.1327 14.9659 29.8805 14.5176 29.4322C14.0693 28.9839 13.817 28.3753 13.817 27.7413V15.7829H26.5722L26.5721 27.7413Z" fill="#1E1E1E"/>
<path d="M17.4039 26.8334C17.6502 26.9757 17.9544 26.9757 18.2007 26.8334C18.447 26.6911 18.5996 26.4277 18.5996 26.1431V19.7656C18.5996 19.5543 18.5152 19.3514 18.3661 19.2023C18.2169 19.0531 18.0141 18.9688 17.8027 18.9688C17.5914 18.9688 17.3885 19.0531 17.2394 19.2023C17.0902 19.3514 17.0059 19.5543 17.0059 19.7656V26.1431C17.0059 26.4286 17.1576 26.6911 17.4039 26.8334Z" fill="#1E1E1E"/>
<path d="M22.188 26.8334C22.4344 26.9757 22.7386 26.9757 22.9849 26.8334C23.2312 26.6911 23.3838 26.4277 23.3838 26.1431V19.7656C23.3838 19.5543 23.2994 19.3514 23.1503 19.2023C23.0011 19.0531 22.7983 18.9688 22.5869 18.9688C22.3756 18.9688 22.1727 19.0531 22.0236 19.2023C21.8744 19.3514 21.79 19.5543 21.79 19.7656V26.1431C21.7892 26.4286 21.9409 26.6911 22.188 26.8334Z" fill="#1E1E1E"/>
</svg>
