<svg width="26" height="26" viewBox="0 0 26 26" fill="none" xmlns="http://www.w3.org/2000/svg">
<circle cx="13" cy="13" r="12.4" stroke="#9A9A9A" stroke-width="1.2"/>
<path fill-rule="evenodd" clip-rule="evenodd" d="M11.7001 9.22921C11.7826 9.14671 11.8944 9.10031 12.0113 9.10031H13.9893C14.1058 9.10031 14.2175 9.14671 14.3 9.22921C14.3824 9.31171 14.4287 9.4236 14.4287 9.54013V9.97994H11.5714V9.54013C11.5714 9.4236 11.6177 9.31171 11.7001 9.22921ZM15.5274 9.54013V9.97994H17.4509C17.7543 9.97994 18 10.2264 18 10.5301C18 10.8338 17.7543 11.0803 17.4509 11.0803H17.011V17.4599C17.011 17.8682 16.8492 18.2601 16.5608 18.5488C16.2718 18.8376 15.8808 19 15.4728 19H10.5277C10.1197 19 9.72823 18.8376 9.43976 18.5488C9.15129 18.2601 8.98903 17.8682 8.98903 17.4599V11.0803H8.54964C8.24623 11.0803 8 10.8338 8 10.5301C8 10.2264 8.24623 9.97994 8.54964 9.97994H10.4726V9.54013C10.4726 9.13176 10.6348 8.7399 10.9233 8.45116C11.2118 8.16242 11.6032 8 12.0112 8H13.9893C14.3973 8 14.7882 8.16242 15.0772 8.45116C15.3657 8.7399 15.5274 9.13176 15.5274 9.54013ZM10.0878 11.0803V17.4599C10.0878 17.5764 10.1341 17.6883 10.2165 17.7708C10.299 17.8533 10.4108 17.8997 10.5277 17.8997H15.4728C15.5892 17.8997 15.701 17.8533 15.7834 17.7708C15.8659 17.6883 15.9122 17.5764 15.9122 17.4599V11.0803H10.0878ZM12.0112 12.4549C12.3146 12.4549 12.5604 12.7013 12.5604 13.005V15.9749C12.5604 16.2786 12.3146 16.5251 12.0112 16.5251C11.7078 16.5251 11.4616 16.2786 11.4616 15.9749V13.005C11.4616 12.7013 11.7078 12.4549 12.0112 12.4549ZM14.5384 13.005C14.5384 12.7013 14.2927 12.4549 13.9893 12.4549C13.6859 12.4549 13.4396 12.7013 13.4396 13.005V15.9749C13.4396 16.2786 13.6859 16.5251 13.9893 16.5251C14.2927 16.5251 14.5384 16.2786 14.5384 15.9749V13.005Z" fill="#1E1E1E"/>
</svg>