<svg xmlns="http://www.w3.org/2000/svg" width="26" height="24" viewBox="0 0 26 24">
  <g id="download-to-storage-drive" transform="translate(0 -18.27)">
    <g id="Group_3071" data-name="Group 3071" transform="translate(0 18.27)">
      <path id="Path_2905" data-name="Path 2905" d="M25.562,311.07a1.446,1.446,0,0,0-1.062-.437H17.25l-2.125,2.125a3.018,3.018,0,0,1-4.25,0l-2.109-2.125H1.5a1.448,1.448,0,0,0-1.062.437A1.446,1.446,0,0,0,0,312.133v5A1.446,1.446,0,0,0,.437,318.2a1.447,1.447,0,0,0,1.062.437h23a1.493,1.493,0,0,0,1.5-1.5v-5A1.446,1.446,0,0,0,25.562,311.07ZM19.7,316.336a.981.981,0,1,1,.3-.7A.962.962,0,0,1,19.7,316.336Zm4,0a.98.98,0,1,1,.3-.7A.961.961,0,0,1,23.7,316.336Z" transform="translate(0 -294.633)" fill="#646464"/>
      <path id="Path_2906" data-name="Path 2906" d="M98.38,34.973a.981.981,0,0,0,1.406,0l7-7A.9.9,0,0,0,107,26.879a.934.934,0,0,0-.922-.609h-4v-7a1.014,1.014,0,0,0-1-1h-4a1.014,1.014,0,0,0-1,1v7h-4a.934.934,0,0,0-.922.609.9.9,0,0,0,.219,1.094Z" transform="translate(-86.083 -18.27)" fill="#646464"/>
    </g>
  </g>
</svg>
