<svg viewBox="0 0 24 25" fill="none" xmlns="http://www.w3.org/2000/svg">

  <path
    fill-rule="evenodd"
    clip-rule="evenodd"
    d="M12.1367 1.73855C18.0767 1.73855 22.8982 6.55371 22.8982 12.5C22.8982 18.4463 18.083 23.2615 12.1367 23.2615C6.19043 23.2615 1.37527 18.44 1.37527 12.5C1.37527 6.56003 6.19043 1.73855 12.1367 1.73855ZM12.1367 0.5C18.7655 0.5 24.1367 5.87125 24.1367 12.5C24.1367 19.1288 18.7655 24.5 12.1367 24.5C5.50797 24.5 0.136719 19.1224 0.136719 12.5C0.136719 5.87757 5.50797 0.5 12.1367 0.5Z"
    fill="#00647D"
  />

  <path
    fill-rule="evenodd"
    clip-rule="evenodd"
    d="M11.3783 13.7512L8.50315 11.0593C8.26302 10.8191 7.92179 10.7496 7.62479 10.9392C7.25829 11.1793 7.17614 11.6849 7.51105 11.9945L12.1303 16.3231L16.7496 11.9945C16.9013 11.8492 16.9771 11.6533 16.9518 11.4447C16.9329 11.2678 16.8381 11.1098 16.7054 10.9961C16.4084 10.7433 16.0229 10.7939 15.7575 11.0529L12.8697 13.7575V5.58691H11.3847V13.7512H11.3783Z"
    fill="#00647D"
  />

  <path
    fill-rule="evenodd"
    clip-rule="evenodd"
    d="M6.81602 17.5933H17.4574C17.5332 17.5933 17.5964 17.6565 17.5964 17.7323V18.8318C17.5964 18.9076 17.5332 18.9708 17.4574 18.9708H6.81602C6.74019 18.9708 6.677 18.9076 6.677 18.8318V17.7323C6.677 17.6565 6.74019 17.5933 6.81602 17.5933Z"
    fill="#00647D"
  />

</svg>
