<svg width="26" height="26" viewBox="0 0 26 26" fill="none" xmlns="http://www.w3.org/2000/svg">
<g id="noun-configuration-3558643 1">
<g id="Group 1171275225">
<g id="Group">
<g id="Group_2">
<path id="Vector" d="M12.9899 16.7024C12.956 16.7024 12.8883 16.7024 12.8544 16.7024L11.2286 16.5669C10.3141 16.4992 9.63664 15.7879 9.5689 14.9072L9.43341 13.2814C9.39954 12.7395 9.5689 12.2314 9.97535 11.8588L18.8495 2.98464C19.5608 2.27335 20.7124 2.27335 21.4237 2.98464L23.1512 4.71206C23.8624 5.42335 23.8624 6.57496 23.1512 7.28625L14.277 16.1604C13.9044 16.533 13.4641 16.7024 12.9899 16.7024ZM12.956 15.3475C13.0915 15.3475 13.227 15.3137 13.3286 15.2121L22.2028 6.33787C22.3721 6.16851 22.3721 5.86367 22.2028 5.69432L20.4753 3.9669C20.306 3.79754 20.0012 3.79754 19.8318 3.9669L10.9237 12.8072C10.8221 12.9088 10.7883 13.0443 10.7883 13.1798L10.9237 14.8056C10.9576 15.0427 11.127 15.2121 11.3641 15.2459L12.956 15.3475Z" fill="#1E1E1E" stroke="#1E1E1E" stroke-width="0.4"/>
</g>
</g>
<g id="Group_3">
<g id="Group_4">
<g id="Group_5">
<path id="Vector_2" d="M17.971 23H9.02903C5.70968 23 3 20.2903 3 16.971V8.02903C3 4.70968 5.70968 2 9.02903 2H15.9387C16.3113 2 16.6161 2.30484 16.6161 2.67742C16.6161 3.05 16.3113 3.35484 15.9387 3.35484H9.02903C6.45484 3.35484 4.35484 5.45484 4.35484 8.02903V16.971C4.35484 19.5452 6.45484 21.6452 9.02903 21.6452H17.971C20.5452 21.6452 22.6452 19.5452 22.6452 16.971V10.0613C22.6452 9.68871 22.95 9.38387 23.3226 9.38387C23.6952 9.38387 24 9.68871 24 10.0613V16.971C24 20.2903 21.2903 23 17.971 23Z" fill="#1E1E1E" stroke="#1E1E1E" stroke-width="0.4"/>
</g>
</g>
</g>
</g>
</g>
</svg>
