<svg width="26" height="26" viewBox="0 0 26 26" fill="none" xmlns="http://www.w3.org/2000/svg">
<circle cx="13" cy="13" r="12.4" stroke="#ED0000" stroke-width="1.2"/>
<path fill-rule="evenodd" clip-rule="evenodd" d="M15.1684 8.48597C15.8159 7.83801 16.8666 7.83801 17.514 8.48597C18.162 9.13341 18.162 10.1842 17.514 10.8316L13.576 14.7697C13.3448 15.0014 13.0499 15.159 12.7285 15.2233L11.1019 15.5488C10.9209 15.5851 10.7333 15.5281 10.6027 15.3974C10.4721 15.2668 10.415 15.0792 10.4513 14.8982L10.7768 13.2716C10.8411 12.9502 10.9987 12.6552 11.2304 12.4241L15.1684 8.48597ZM16.7323 9.26766C16.5161 9.05202 16.1663 9.05202 15.9501 9.26766L15.7407 9.47708L16.5229 10.2593L16.7323 10.0499C16.9479 9.83372 16.9479 9.48382 16.7323 9.26766ZM15.7407 11.041L14.959 10.2593L12.0121 13.2057C11.9349 13.2829 11.8825 13.3814 11.8613 13.4882L11.6985 14.3015L12.5118 14.1387C12.6186 14.1175 12.7171 14.0651 12.7943 13.9879L15.7407 11.041ZM9.65874 9.15301C9.35343 9.15301 9.10565 9.40079 9.10565 9.70611V16.3412C9.10565 16.6465 9.35343 16.8943 9.65874 16.8943H16.2938C16.5991 16.8943 16.8469 16.6465 16.8469 16.3412V13.0237C16.8469 12.7183 17.0941 12.4706 17.3994 12.4706C17.7048 12.4706 17.9525 12.7183 17.9525 13.0237V16.3412C17.9525 17.2572 17.2097 18 16.2938 18H9.65876C8.74282 18 8 17.2572 8 16.3412V9.70611C8 8.79016 8.74282 8.04733 9.65876 8.04733H12.9763C13.2816 8.04733 13.5294 8.29512 13.5294 8.60044C13.5294 8.90576 13.2816 9.15302 12.9763 9.15302L9.65874 9.15301Z" fill="#ED0000"/>
</svg>
