<svg width="65" height="66" viewBox="0 0 65 66" fill="none" xmlns="http://www.w3.org/2000/svg">
<path d="M43.875 29.75C45.2292 29.75 46.3802 29.276 47.3281 28.3281C48.276 27.3802 48.75 26.2292 48.75 24.875C48.75 23.5208 48.276 22.3698 47.3281 21.4219C46.3802 20.474 45.2292 20 43.875 20C42.5208 20 41.3698 20.474 40.4219 21.4219C39.474 22.3698 39 23.5208 39 24.875C39 26.2292 39.474 27.3802 40.4219 28.3281C41.3698 29.276 42.5208 29.75 43.875 29.75ZM21.125 29.75C22.4792 29.75 23.6302 29.276 24.5781 28.3281C25.526 27.3802 26 26.2292 26 24.875C26 23.5208 25.526 22.3698 24.5781 21.4219C23.6302 20.474 22.4792 20 21.125 20C19.7708 20 18.6198 20.474 17.6719 21.4219C16.724 22.3698 16.25 23.5208 16.25 24.875C16.25 26.2292 16.724 27.3802 17.6719 28.3281C18.6198 29.276 19.7708 29.75 21.125 29.75ZM32.5 37.875C28.8167 37.875 25.4719 38.9177 22.4656 41.0031C19.4594 43.0885 17.2792 45.8375 15.925 49.25H21.2875C22.4792 47.2458 24.0635 45.6615 26.0406 44.4969C28.0177 43.3323 30.1708 42.75 32.5 42.75C34.8292 42.75 36.9823 43.3323 38.9594 44.4969C40.9365 45.6615 42.5208 47.2458 43.7125 49.25H49.075C47.7208 45.8375 45.5406 43.0885 42.5344 41.0031C39.5281 38.9177 36.1833 37.875 32.5 37.875ZM32.5 65.5C28.0042 65.5 23.7792 64.6469 19.825 62.9406C15.8708 61.2344 12.4312 58.9187 9.50625 55.9937C6.58125 53.0687 4.26562 49.6292 2.55937 45.675C0.853125 41.7208 0 37.4958 0 33C0 28.5042 0.853125 24.2792 2.55937 20.325C4.26562 16.3708 6.58125 12.9312 9.50625 10.0062C12.4312 7.08125 15.8708 4.76562 19.825 3.05937C23.7792 1.35312 28.0042 0.5 32.5 0.5C36.9958 0.5 41.2208 1.35312 45.175 3.05937C49.1292 4.76562 52.5687 7.08125 55.4937 10.0062C58.4187 12.9312 60.7344 16.3708 62.4406 20.325C64.1469 24.2792 65 28.5042 65 33C65 37.4958 64.1469 41.7208 62.4406 45.675C60.7344 49.6292 58.4187 53.0687 55.4937 55.9937C52.5687 58.9187 49.1292 61.2344 45.175 62.9406C41.2208 64.6469 36.9958 65.5 32.5 65.5ZM32.5 59C39.7583 59 45.9062 56.4812 50.9437 51.4437C55.9812 46.4062 58.5 40.2583 58.5 33C58.5 25.7417 55.9812 19.5938 50.9437 14.5562C45.9062 9.51875 39.7583 7 32.5 7C25.2417 7 19.0938 9.51875 14.0562 14.5562C9.01875 19.5938 6.5 25.7417 6.5 33C6.5 40.2583 9.01875 46.4062 14.0562 51.4437C19.0938 56.4812 25.2417 59 32.5 59Z" fill="#ED0000"/>
</svg>