<svg xmlns="http://www.w3.org/2000/svg" width="16" height="16" viewBox="0 0 16 16" fill="none">
<path d="M10.7334 8.86719L9.76675 7.90052C9.86675 7.3783 9.71675 6.88941 9.31675 6.43385C8.91675 5.9783 8.40008 5.80052 7.76675 5.90052L6.80008 4.93385C6.98897 4.84497 7.18064 4.7783 7.37508 4.73385C7.56953 4.68941 7.77786 4.66719 8.00008 4.66719C8.83342 4.66719 9.54175 4.95885 10.1251 5.54219C10.7084 6.12552 11.0001 6.83385 11.0001 7.66719C11.0001 7.88941 10.9779 8.09774 10.9334 8.29219C10.889 8.48663 10.8223 8.6783 10.7334 8.86719ZM12.8667 10.9672L11.9001 10.0339C12.3223 9.71163 12.6973 9.35885 13.0251 8.97552C13.3529 8.59219 13.6334 8.15608 13.8667 7.66719C13.3112 6.54497 12.514 5.6533 11.4751 4.99219C10.4362 4.33108 9.27786 4.00052 8.00008 4.00052C7.67786 4.00052 7.36119 4.02274 7.05008 4.06719C6.73897 4.11163 6.43341 4.1783 6.13342 4.26719L5.10008 3.23385C5.55564 3.04497 6.0223 2.9033 6.50008 2.80885C6.97786 2.71441 7.47786 2.66719 8.00008 2.66719C9.67786 2.66719 11.1723 3.13108 12.4834 4.05885C13.7945 4.98663 14.7445 6.18941 15.3334 7.66719C15.0779 8.32274 14.7417 8.93108 14.3251 9.49219C13.9084 10.0533 13.4223 10.545 12.8667 10.9672ZM13.2001 15.0672L10.4001 12.3005C10.0112 12.4227 9.61953 12.5144 9.22508 12.5755C8.83064 12.6366 8.4223 12.6672 8.00008 12.6672C6.3223 12.6672 4.82786 12.2033 3.51675 11.2755C2.20564 10.3477 1.25564 9.14497 0.666748 7.66719C0.900081 7.0783 1.19453 6.53108 1.55008 6.02552C1.90564 5.51997 2.31119 5.06719 2.76675 4.66719L0.933415 2.80052L1.86675 1.86719L14.1334 14.1339L13.2001 15.0672ZM3.70008 5.60052C3.37786 5.88941 3.08341 6.20608 2.81675 6.55052C2.55008 6.89497 2.3223 7.26719 2.13341 7.66719C2.68897 8.78941 3.48619 9.68108 4.52508 10.3422C5.56397 11.0033 6.7223 11.3339 8.00008 11.3339C8.2223 11.3339 8.43897 11.32 8.65008 11.2922C8.86119 11.2644 9.07786 11.2339 9.30008 11.2005L8.70008 10.5672C8.57786 10.6005 8.46119 10.6255 8.35008 10.6422C8.23897 10.6589 8.1223 10.6672 8.00008 10.6672C7.16675 10.6672 6.45842 10.3755 5.87508 9.79219C5.29175 9.20885 5.00008 8.50052 5.00008 7.66719C5.00008 7.54497 5.00841 7.4283 5.02508 7.31719C5.04175 7.20608 5.06675 7.08941 5.10008 6.96719L3.70008 5.60052Z" fill="#6B6B6B"/>
</svg>