<svg width="20" height="21" viewBox="0 0 20 21" fill="none" xmlns="http://www.w3.org/2000/svg">
<path d="M12 13.3276C12.2833 13.3276 12.5292 13.2235 12.7375 13.0151C12.9458 12.8068 13.05 12.561 13.05 12.2776C13.05 11.9943 12.9458 11.7485 12.7375 11.5401C12.5292 11.3318 12.2833 11.2276 12 11.2276C11.7167 11.2276 11.4708 11.3318 11.2625 11.5401C11.0542 11.7485 10.95 11.9943 10.95 12.2776C10.95 12.561 11.0542 12.8068 11.2625 13.0151C11.4708 13.2235 11.7167 13.3276 12 13.3276ZM11.25 10.1276H12.75C12.75 9.6443 12.8 9.29014 12.9 9.06514C13 8.84014 13.2333 8.5443 13.6 8.17764C14.1 7.67764 14.4333 7.27347 14.6 6.96514C14.7667 6.6568 14.85 6.2943 14.85 5.87764C14.85 5.12764 14.5875 4.51514 14.0625 4.04014C13.5375 3.56514 12.85 3.32764 12 3.32764C11.3167 3.32764 10.7208 3.5193 10.2125 3.90264C9.70417 4.28597 9.35 4.7943 9.15 5.42764L10.5 5.97764C10.65 5.56097 10.8542 5.24847 11.1125 5.04014C11.3708 4.8318 11.6667 4.72764 12 4.72764C12.4 4.72764 12.725 4.84014 12.975 5.06514C13.225 5.29014 13.35 5.5943 13.35 5.97764C13.35 6.21097 13.2833 6.4318 13.15 6.64014C13.0167 6.84847 12.7833 7.11097 12.45 7.42764C11.9 7.91097 11.5625 8.29014 11.4375 8.56514C11.3125 8.84014 11.25 9.36097 11.25 10.1276ZM6 16.3276C5.45 16.3276 4.97917 16.1318 4.5875 15.7401C4.19583 15.3485 4 14.8776 4 14.3276V2.32764C4 1.77764 4.19583 1.3068 4.5875 0.915137C4.97917 0.52347 5.45 0.327637 6 0.327637H18C18.55 0.327637 19.0208 0.52347 19.4125 0.915137C19.8042 1.3068 20 1.77764 20 2.32764V14.3276C20 14.8776 19.8042 15.3485 19.4125 15.7401C19.0208 16.1318 18.55 16.3276 18 16.3276H6ZM6 14.3276H18V2.32764H6V14.3276ZM2 20.3276C1.45 20.3276 0.979167 20.1318 0.5875 19.7401C0.195833 19.3485 0 18.8776 0 18.3276V4.32764H2V18.3276H16V20.3276H2Z" fill="white"/>
</svg>
