<svg xmlns="http://www.w3.org/2000/svg" width="45.479" height="41.19" viewBox="0 0 45.479 41.19">
  <path id="faq" d="M5.947,58.586V52.86a.764.764,0,0,0-.767-.768H1.437A1.447,1.447,0,0,1,0,50.656V25.58a1.447,1.447,0,0,1,1.437-1.437H34.648a1.443,1.443,0,0,1,1.433,1.437V50.656a1.443,1.443,0,0,1-1.433,1.437h-20a.77.77,0,0,0-.469.16Zm39.532.76V39.4a.993.993,0,0,0-.985-.985H38.577v13.19a2.977,2.977,0,0,1-2.971,2.972H17.1v4.765a.994.994,0,0,0,.989.985h15.9a.763.763,0,0,1,.469.159l6.3,4.843V61.1a.764.764,0,0,1,.767-.768h2.978a.992.992,0,0,0,.985-.985ZM18.455,46.617a1.148,1.148,0,0,0-1.15-1.151h-.158a1.151,1.151,0,0,0,0,2.3H17.3A1.148,1.148,0,0,0,18.455,46.617Zm1.822-12.858v.065a1.531,1.531,0,0,1-.035.293,1.949,1.949,0,0,1-.467.849,10.332,10.332,0,0,1-.939.909,10.007,10.007,0,0,0-1.848,2.007,5.775,5.775,0,0,0-.912,3.277,1.149,1.149,0,0,0,1.15,1.14h.01a1.151,1.151,0,0,0,1.14-1.162c-.016-1.679.811-2.492,1.988-3.544,1.158-1.035,2.157-2.018,2.212-3.681V33.9a4.4,4.4,0,0,0-2.056-4.075,4.88,4.88,0,0,0-4.377-.477,4.157,4.157,0,0,0-.442.207A4.473,4.473,0,0,0,13.5,33.64,1.149,1.149,0,0,0,14.643,34.8h.006a1.151,1.151,0,0,0,1.15-1.144,2.214,2.214,0,0,1,1-2.077,2.536,2.536,0,0,1,2.477.183,2.123,2.123,0,0,1,1,2Z" transform="translate(0 -24.143)" fill-rule="evenodd"/>
</svg>
