<svg width="16" height="16" viewBox="0 0 16 16" fill="none" xmlns="http://www.w3.org/2000/svg">
<g id="filter_alt_24dp_5F6368_FILL0_wght400_GRAD0_opsz24 1">
<path id="Vector" d="M7.25192 14C7.03997 14 6.8623 13.9281 6.71892 13.7844C6.57554 13.6406 6.50385 13.4625 6.50385 13.25V8.75L2.16502 3.2C1.978 2.95 1.94994 2.6875 2.08086 2.4125C2.21177 2.1375 2.43931 2 2.76348 2H13.2365C13.5607 2 13.7882 2.1375 13.9191 2.4125C14.0501 2.6875 14.022 2.95 13.835 3.2L9.49615 8.75V13.25C9.49615 13.4625 9.42446 13.6406 9.28108 13.7844C9.1377 13.9281 8.96003 14 8.74807 14H7.25192ZM8 8.225L11.703 3.5H4.29703L8 8.225Z" fill="white"/>
</g>
</svg>
