<svg xmlns="http://www.w3.org/2000/svg" width="26.797" height="27.468" viewBox="0 0 26.797 27.468">
  <path id="filter" d="M25.642,0H1.154A1.15,1.15,0,0,0,.128.625,1.166,1.166,0,0,0,.219,1.839L9.19,14.477l.009.013a2.562,2.562,0,0,1,.5,1.521v10.3a1.146,1.146,0,0,0,1.145,1.153,1.181,1.181,0,0,0,.452-.091l5.041-1.922a1.092,1.092,0,0,0,.751-1.077V16.011a2.564,2.564,0,0,1,.5-1.521l.009-.013L26.577,1.838A1.165,1.165,0,0,0,26.668.625,1.15,1.15,0,0,0,25.642,0Zm0,0" transform="translate(0.001 0)" fill="#8d8d8d"/>
</svg>
