<svg width="16" height="16" viewBox="0 0 16 16" fill="none" xmlns="http://www.w3.org/2000/svg">
<path d="M11 12.6667H8.33333L5.36666 14.64C4.92666 14.9333 4.33333 14.62 4.33333 14.0867V12.6667C2.33333 12.6667 1 11.3334 1 9.33337V5.33333C1 3.33333 2.33333 2 4.33333 2H11C13 2 14.3333 3.33333 14.3333 5.33333V9.33337C14.3333 11.3334 13 12.6667 11 12.6667Z" stroke="#ED0000" stroke-width="1.5" stroke-miterlimit="10" stroke-linecap="round" stroke-linejoin="round"/>
<path d="M7.6672 7.95313V7.81315C7.6672 7.35982 7.94721 7.11981 8.22721 6.92647C8.50055 6.73981 8.77384 6.49981 8.77384 6.05981C8.77384 5.44648 8.28053 4.95312 7.6672 4.95312C7.05386 4.95312 6.56055 5.44648 6.56055 6.05981" stroke="#ED0000" stroke-width="1.5" stroke-linecap="round" stroke-linejoin="round"/>
<path d="M7.66406 9.54688H7.67006" stroke="#ED0000" stroke-width="1.5" stroke-linecap="round" stroke-linejoin="round"/>
</svg>
