<svg xmlns="http://www.w3.org/2000/svg" width="18" height="18" viewBox="0 0 18 18" fill="none">
  <g clip-path="url(#clip0_2694_20381)">
    <path d="M15.3633 2.63521C13.6644 0.93633 11.4037 0 8.99925 0C6.59476 0 4.33558 0.93633 2.6367 2.63521C0.93633 4.33558 0 6.59625 0 8.99925C0 11.4022 0.93633 13.6629 2.6367 15.3633C4.33708 17.0637 6.59626 17.9985 9.00075 17.9985C11.4052 17.9985 13.6644 17.0622 15.3648 15.3633C17.0652 13.6629 18.0015 11.4037 18.0015 8.99925C18.0015 6.59476 17.0652 4.33558 15.3648 2.63521H15.3633Z" fill="#6AC9CE"/>
    <path d="M10.7666 12.4153C10.6512 12.3839 10.5299 12.4348 10.4624 12.5352C10.1134 13.0491 9.57706 13.2228 9.27743 13.0895C9.04372 12.9846 9.05721 12.724 9.10964 12.5247L10.4355 7.43856C10.4355 7.43856 10.4355 7.43557 10.4355 7.43407C10.437 7.42658 10.4385 7.41759 10.44 7.4101C10.44 7.4071 10.44 7.40411 10.44 7.40111C10.44 7.39362 10.44 7.38613 10.4415 7.37714C10.4415 7.37414 10.4415 7.37115 10.4415 7.36815C10.4415 7.35916 10.4415 7.34868 10.4415 7.33969C10.4415 7.33969 10.4415 7.33819 10.4415 7.33669C10.4415 7.3262 10.4385 7.31572 10.4355 7.30673C10.4355 7.30523 10.4355 7.30223 10.434 7.30074C10.4325 7.29325 10.4295 7.28426 10.4265 7.27677C10.4265 7.27377 10.425 7.27227 10.4235 7.26928C10.4205 7.26178 10.4175 7.25429 10.4145 7.2468C10.4145 7.24381 10.4115 7.24231 10.4115 7.23931C10.407 7.23182 10.4025 7.22433 10.398 7.21684C10.398 7.21534 10.3965 7.21384 10.395 7.21235C10.389 7.20336 10.383 7.19437 10.3756 7.18688C10.3756 7.18688 10.3756 7.18688 10.3741 7.18538C10.3681 7.17789 10.3606 7.1719 10.3546 7.16441C10.3531 7.16291 10.3501 7.15991 10.3486 7.15841C10.3426 7.15392 10.3366 7.14793 10.3306 7.14343C10.3276 7.14193 10.3261 7.14044 10.3231 7.13894C10.3156 7.13295 10.3081 7.12845 10.2992 7.12396C10.2992 7.12396 10.2992 7.12396 10.2977 7.12396C10.2887 7.11946 10.2782 7.11497 10.2677 7.11047C10.2677 7.11047 10.2662 7.11047 10.2647 7.11047C10.2557 7.10748 10.2467 7.10448 10.2377 7.10149C10.2347 7.10149 10.2332 7.10148 10.2302 7.09999C10.2227 7.09849 10.2138 7.09699 10.2063 7.09549C10.2033 7.09549 10.2003 7.09549 10.1973 7.09549C10.1898 7.09549 10.1808 7.09549 10.1733 7.09399C10.1703 7.09399 10.1688 7.09399 10.1658 7.09399C10.1553 7.09399 10.1448 7.09399 10.1344 7.09549L7.16058 7.43856C7.01526 7.45504 6.89841 7.57939 6.9044 7.7262C6.91039 7.87751 7.03623 7.99287 7.18155 7.99287C7.19204 7.99287 7.20253 7.99287 7.21301 7.99137L7.71938 7.93295C7.9456 7.90748 8.12837 8.11572 8.06994 8.33744L6.96282 12.5876C6.82949 13.1 6.83848 13.5449 6.98979 13.9105C7.13511 14.2625 7.40477 14.5172 7.76732 14.6476C7.9426 14.7105 8.13436 14.7419 8.33361 14.7419C8.69915 14.7419 9.09166 14.6371 9.46919 14.4333C10.0894 14.0977 10.6138 13.5195 10.9463 12.8049C11.0168 12.652 10.9389 12.4678 10.7651 12.4198L10.7666 12.4153Z" fill="#1E1E1E"/>
    <path d="M9.78829 5.94187C10.5269 5.94187 11.1291 5.34112 11.1291 4.60104C11.1291 3.86097 10.5284 3.26172 9.78829 3.26172C9.04822 3.26172 8.44747 3.86247 8.44747 4.60104C8.44747 5.33962 9.04822 5.94187 9.78829 5.94187Z" fill="#1E1E1E"/>
  </g>
  <defs>
    <clipPath id="clip0_2694_20381">
      <rect width="18" height="18" fill="white"/>
    </clipPath>
  </defs>
</svg>