<svg width="18" height="20" viewBox="0 0 18 20" fill="none" xmlns="http://www.w3.org/2000/svg">
<g clip-path="url(#clip0_5290_2440)">
<path d="M15.3633 4.63521C13.6644 2.93633 11.4037 2 8.99925 2C6.59476 2 4.33558 2.93633 2.6367 4.63521C0.93633 6.33558 0 8.59625 0 10.9993C0 13.4022 0.93633 15.6629 2.6367 17.3633C4.33708 19.0637 6.59626 19.9985 9.00075 19.9985C11.4052 19.9985 13.6644 19.0622 15.3648 17.3633C17.0652 15.6629 18.0015 13.4037 18.0015 10.9993C18.0015 8.59476 17.0652 6.33558 15.3648 4.63521H15.3633Z" fill="#6AC9CE"/>
<path d="M10.7646 14.7955C10.6493 14.7605 10.5279 14.8171 10.4605 14.9286C10.1114 15.4996 9.5751 15.6927 9.27548 15.5445C9.04177 15.428 9.05525 15.1384 9.10769 14.917L10.4335 9.26567C10.4335 9.26567 10.4335 9.26234 10.4335 9.26068C10.435 9.25235 10.4365 9.24237 10.438 9.23404C10.438 9.23071 10.438 9.22739 10.438 9.22406C10.438 9.21573 10.438 9.20741 10.4395 9.19742C10.4395 9.19409 10.4395 9.19076 10.4395 9.18743C10.4395 9.17745 10.4395 9.16579 10.4395 9.15581C10.4395 9.15581 10.4395 9.15414 10.4395 9.15248C10.4395 9.14083 10.4365 9.12917 10.4335 9.11919C10.4335 9.11752 10.4335 9.11419 10.432 9.11253C10.4305 9.1042 10.4275 9.09422 10.4245 9.08589C10.4245 9.08256 10.423 9.0809 10.4215 9.07757C10.4185 9.06925 10.4156 9.06092 10.4126 9.0526C10.4126 9.04927 10.4096 9.04761 10.4096 9.04428C10.4051 9.03596 10.4006 9.02763 10.3961 9.01931C10.3961 9.01765 10.3946 9.01598 10.3931 9.01432C10.3871 9.00433 10.3811 8.99434 10.3736 8.98602C10.3736 8.98602 10.3736 8.98602 10.3721 8.98435C10.3661 8.97603 10.3586 8.96937 10.3526 8.96105C10.3511 8.95938 10.3481 8.95605 10.3466 8.95439C10.3406 8.9494 10.3347 8.94274 10.3287 8.93774C10.3257 8.93608 10.3242 8.93442 10.3212 8.93275C10.3137 8.92609 10.3062 8.9211 10.2972 8.9161C10.2972 8.9161 10.2972 8.9161 10.2957 8.9161C10.2867 8.91111 10.2762 8.90612 10.2657 8.90112C10.2657 8.90112 10.2642 8.90112 10.2627 8.90112C10.2538 8.89779 10.2448 8.89447 10.2358 8.89114C10.2328 8.89114 10.2313 8.89114 10.2283 8.88947C10.2208 8.88781 10.2118 8.88614 10.2043 8.88448C10.2013 8.88448 10.1983 8.88448 10.1953 8.88448C10.1878 8.88448 10.1788 8.88448 10.1714 8.88281C10.1684 8.88281 10.1669 8.88281 10.1639 8.88281C10.1534 8.88281 10.1429 8.88281 10.1324 8.88448L7.15862 9.26567C7.01331 9.28398 6.89645 9.42214 6.90244 9.58527C6.90844 9.7534 7.03428 9.88157 7.1796 9.88157C7.19009 9.88157 7.20057 9.88157 7.21106 9.87991L7.71743 9.81499C7.94364 9.78669 8.12641 10.0181 8.06799 10.2644L6.96087 14.9869C6.82754 15.5562 6.83653 16.0506 6.98784 16.4567C7.13316 16.8479 7.40282 17.1309 7.76537 17.2757C7.94065 17.3456 8.13241 17.3806 8.33166 17.3806C8.6972 17.3806 9.08971 17.2641 9.46724 17.0377C10.0875 16.6648 10.6118 16.0223 10.9444 15.2283C11.0148 15.0585 10.9369 14.8537 10.7631 14.8005L10.7646 14.7955Z" fill="#1E1E1E"/>
<path d="M9.5 8C10.3263 8 11 7.32756 11 6.49916C11 5.67077 10.3279 5 9.5 5C8.67207 5 8 5.67244 8 6.49916C8 7.32588 8.67207 8 9.5 8Z" fill="#1E1E1E"/>
</g>
<defs>
<clipPath id="clip0_5290_2440">
<rect width="18.0015" height="19.9985" fill="white"/>
</clipPath>
</defs>
</svg>
