<svg width="5" height="12" viewBox="0 0 5 12" fill="none" xmlns="http://www.w3.org/2000/svg">
<g id="Group">
<path id="Vector" d="M4.76462 9.32135C4.64926 9.28989 4.52791 9.34082 4.4605 9.4412C4.11143 9.95506 3.5751 10.1288 3.27548 9.99551C3.04177 9.89064 3.05525 9.62996 3.10769 9.43071L4.43353 4.34457C4.43353 4.34457 4.43353 4.34157 4.43353 4.34007C4.43503 4.33258 4.43653 4.3236 4.43803 4.3161C4.43803 4.31311 4.43803 4.31011 4.43803 4.30712C4.43803 4.29963 4.43802 4.29214 4.43952 4.28315C4.43952 4.28015 4.43952 4.27715 4.43952 4.27416C4.43952 4.26517 4.43952 4.25468 4.43952 4.24569C4.43952 4.24569 4.43952 4.2442 4.43952 4.2427C4.43952 4.23221 4.43653 4.22172 4.43353 4.21273C4.43353 4.21124 4.43353 4.20824 4.43203 4.20674C4.43053 4.19925 4.42754 4.19026 4.42454 4.18277C4.42454 4.17978 4.42304 4.17828 4.42155 4.17528C4.41855 4.16779 4.41555 4.1603 4.41256 4.15281C4.41256 4.14981 4.40956 4.14831 4.40956 4.14532C4.40507 4.13783 4.40057 4.13034 4.39608 4.12285C4.39608 4.12135 4.39458 4.11985 4.39308 4.11835C4.38709 4.10936 4.3811 4.10037 4.37361 4.09288C4.37361 4.09288 4.37361 4.09288 4.37211 4.09139C4.36612 4.0839 4.35862 4.0779 4.35263 4.07041C4.35113 4.06891 4.34814 4.06592 4.34664 4.06442C4.34065 4.05993 4.33465 4.05393 4.32866 4.04944C4.32567 4.04794 4.32417 4.04644 4.32117 4.04494C4.31368 4.03895 4.30619 4.03446 4.2972 4.02996C4.2972 4.02996 4.2972 4.02996 4.2957 4.02996C4.28671 4.02547 4.27623 4.02097 4.26574 4.01648C4.26574 4.01648 4.26424 4.01648 4.26274 4.01648C4.25375 4.01348 4.24477 4.01049 4.23578 4.00749C4.23278 4.00749 4.23128 4.00749 4.22829 4.00599C4.2208 4.00449 4.21181 4.003 4.20432 4.0015C4.20132 4.0015 4.19832 4.0015 4.19533 4.0015C4.18784 4.0015 4.17885 4.0015 4.17136 4C4.16836 4 4.16686 4 4.16387 4C4.15338 4 4.14289 4 4.13241 4.0015L1.15862 4.34457C1.01331 4.36105 0.896452 4.48539 0.902445 4.63221C0.908437 4.78352 1.03428 4.89888 1.1796 4.89888C1.19009 4.89888 1.20057 4.89888 1.21106 4.89738L1.71743 4.83895C1.94364 4.81348 2.12641 5.02172 2.06799 5.24345L0.960872 9.49363C0.827538 10.006 0.836527 10.4509 0.987838 10.8165C1.13316 11.1685 1.40282 11.4232 1.76537 11.5536C1.94065 11.6165 2.13241 11.6479 2.33166 11.6479C2.6972 11.6479 3.08971 11.5431 3.46724 11.3393C4.08746 11.0037 4.61181 10.4255 4.94439 9.71086C5.0148 9.55805 4.9369 9.37378 4.76312 9.32584L4.76462 9.32135Z" fill="#1E1E1E"/>
<path id="Vector_2" d="M3.5 3.5C4.32626 3.5 5 2.82756 5 1.99916C5 1.17077 4.32793 0.5 3.5 0.5C2.67207 0.5 2 1.17244 2 1.99916C2 2.82588 2.67207 3.5 3.5 3.5Z" fill="#1E1E1E"/>
</g>
</svg>
