<svg width="16" height="17" viewBox="0 0 16 17" fill="none" xmlns="http://www.w3.org/2000/svg">
<path d="M7.99935 8.75016C8.36602 8.75016 8.6799 8.61961 8.94102 8.3585C9.20213 8.09738 9.33268 7.7835 9.33268 7.41683C9.33268 7.05016 9.20213 6.73627 8.94102 6.47516C8.6799 6.21405 8.36602 6.0835 7.99935 6.0835C7.63268 6.0835 7.31879 6.21405 7.05768 6.47516C6.79657 6.73627 6.66602 7.05016 6.66602 7.41683C6.66602 7.7835 6.79657 8.09738 7.05768 8.3585C7.31879 8.61961 7.63268 8.75016 7.99935 8.75016ZM7.99935 13.6502C9.3549 12.4057 10.3605 11.2752 11.016 10.2585C11.6716 9.24183 11.9993 8.33905 11.9993 7.55016C11.9993 6.33905 11.6132 5.34738 10.841 4.57516C10.0688 3.80294 9.12157 3.41683 7.99935 3.41683C6.87713 3.41683 5.9299 3.80294 5.15768 4.57516C4.38546 5.34738 3.99935 6.33905 3.99935 7.55016C3.99935 8.33905 4.32713 9.24183 4.98268 10.2585C5.63824 11.2752 6.64379 12.4057 7.99935 13.6502ZM7.99935 15.4168C6.21046 13.8946 4.87435 12.4807 3.99102 11.1752C3.10768 9.86961 2.66602 8.66127 2.66602 7.55016C2.66602 5.8835 3.20213 4.55572 4.27435 3.56683C5.34657 2.57794 6.58824 2.0835 7.99935 2.0835C9.41046 2.0835 10.6521 2.57794 11.7243 3.56683C12.7966 4.55572 13.3327 5.8835 13.3327 7.55016C13.3327 8.66127 12.891 9.86961 12.0077 11.1752C11.1243 12.4807 9.78824 13.8946 7.99935 15.4168Z" fill="#707070"/>
</svg>
