<svg width="24" height="25" viewBox="0 0 24 25" fill="none" xmlns="http://www.w3.org/2000/svg">
<path d="M2.9875 18.3276V18.3401H3H15H15.0125V18.3276V17.5276C15.0125 17.3421 14.9661 17.1732 14.8732 17.0211C14.7804 16.8693 14.658 16.7511 14.5061 16.6667L14.5056 16.6665C13.6048 16.2161 12.6956 15.8782 11.778 15.653C10.8603 15.4278 9.93435 15.3151 9 15.3151C8.06565 15.3151 7.13965 15.4278 6.22202 15.653C5.30439 15.8782 4.39519 16.2161 3.49441 16.6665L3.4944 16.6664L3.49393 16.6667C3.342 16.7511 3.2196 16.8693 3.12683 17.0211C3.03392 17.1732 2.9875 17.3421 2.9875 17.5276V18.3276ZM1.0125 20.3151V17.5276C1.0125 16.9632 1.15771 16.4447 1.44815 15.9717C1.73865 15.4986 2.12445 15.1377 2.60569 14.8888C3.63819 14.3725 4.68727 13.9854 5.75294 13.7273C6.81864 13.4692 7.90099 13.3401 9 13.3401C10.099 13.3401 11.1814 13.4692 12.2471 13.7273C13.3127 13.9854 14.3618 14.3725 15.3943 14.8888C15.8755 15.1377 16.2614 15.4986 16.5518 15.9717C16.8423 16.4447 16.9875 16.9632 16.9875 17.5276V20.3151H1.0125ZM19.0125 20.3151V17.3276C19.0125 16.5918 18.8076 15.8855 18.3982 15.2087C17.997 14.5454 17.4314 13.9747 16.7018 13.4964C17.5313 13.5971 18.3127 13.7657 19.0462 14.002C19.7955 14.2435 20.4947 14.539 21.144 14.8886C21.7429 15.2214 22.1998 15.5912 22.5151 15.9978C22.8302 16.4041 22.9875 16.8473 22.9875 17.3276V20.3151H19.0125ZM9 12.3151C7.90334 12.3151 6.96485 11.9248 6.18384 11.1438C5.40283 10.3628 5.0125 9.42429 5.0125 8.32764C5.0125 7.23098 5.40283 6.29248 6.18384 5.51148C6.96485 4.73047 7.90334 4.34014 9 4.34014C10.0967 4.34014 11.0352 4.73047 11.8162 5.51148C12.5972 6.29248 12.9875 7.23098 12.9875 8.32764C12.9875 9.42429 12.5972 10.3628 11.8162 11.1438C11.0352 11.9248 10.0967 12.3151 9 12.3151ZM18.9875 8.32764C18.9875 9.42429 18.5972 10.3628 17.8162 11.1438C17.0352 11.9248 16.0967 12.3151 15 12.3151C14.8175 12.3151 14.5848 12.2944 14.3018 12.2528C14.0284 12.2126 13.8019 12.1685 13.6222 12.1207C14.067 11.5902 14.4093 11.0023 14.6492 10.357C14.8914 9.70559 15.0125 9.02911 15.0125 8.32764C15.0125 7.62616 14.8914 6.94969 14.6492 6.29828C14.4091 5.65253 14.0664 5.06422 13.6212 4.5334C13.848 4.45378 14.0747 4.40185 14.3013 4.37757C14.5342 4.35261 14.7671 4.34014 15 4.34014C16.0967 4.34014 17.0352 4.73047 17.8162 5.51148C18.5972 6.29248 18.9875 7.23098 18.9875 8.32764ZM9 10.3401C9.55334 10.3401 10.0273 10.143 10.4213 9.74898C10.8153 9.35498 11.0125 8.88098 11.0125 8.32764C11.0125 7.7743 10.8153 7.30029 10.4213 6.9063C10.0273 6.51231 9.55334 6.31514 9 6.31514C8.44666 6.31514 7.97265 6.51231 7.57866 6.9063C7.18467 7.30029 6.9875 7.7743 6.9875 8.32764C6.9875 8.88098 7.18467 9.35498 7.57866 9.74898C7.97265 10.143 8.44666 10.3401 9 10.3401Z" fill="white" stroke="white" stroke-width="0.025"/>
</svg>
