<svg xmlns="http://www.w3.org/2000/svg" width="39" height="39" viewBox="0 0 39 39">
  <g id="operator" transform="translate(0 0)">
    <path id="Path_2894" data-name="Path 2894" d="M25.417,351.362a6.03,6.03,0,0,1-5.919,5.981,6.03,6.03,0,0,1-5.917-5.983C6.805,351.42,0,356.376,0,363.592l19.5,0,19.5,0C39,356.876,32.929,351.422,25.417,351.362Zm-12.469,7.463H8.436v-2.285h4.513Z" transform="translate(0 -324.596)"/>
    <path id="Path_2895" data-name="Path 2895" d="M123.977,18.866a6.079,6.079,0,0,1-.522,2.856,2.905,2.905,0,0,1-2.77,1.578h-.023V21.014h.023c.5,0,1.007,0,1.007-2.149v-2.69h-1.07l0-6.757a6.806,6.806,0,0,0-.078-1.026h.513a9.587,9.587,0,0,0-17.865,0h.507a6.729,6.729,0,0,0-.078,1.028l0,6.756h-2.187A1.172,1.172,0,0,1,100.26,15V9.562a1.171,1.171,0,0,1,.44-.916,11.869,11.869,0,0,1,22.846,0,1.17,1.17,0,0,1,.441.916Z" transform="translate(-92.623)"/>
    <path id="Path_2896" data-name="Path 2896" d="M215.571,319.51v2.429a3.633,3.633,0,1,1-7.265,0v-2.427a6.533,6.533,0,0,0,2.011.338h3.241A6.555,6.555,0,0,0,215.571,319.51Z" transform="translate(-192.438 -295.172)"/>
    <path id="Path_2897" data-name="Path 2897" d="M186.863,101.393a4.849,4.849,0,0,0-.379-1.913,9.48,9.48,0,0,1-11.713,0,4.849,4.849,0,0,0-.379,1.913l0,8.316a4.645,4.645,0,0,0,4.587,4.584h3.3a4.645,4.645,0,0,0,4.587-4.584Z" transform="translate(-161.106 -91.902)"/>
    <path id="Path_2898" data-name="Path 2898" d="M206.886,64.431a4.549,4.549,0,0,0-2.795-.951H200.8a4.549,4.549,0,0,0-2.795.951A7.227,7.227,0,0,0,206.886,64.431Z" transform="translate(-182.927 -58.645)"/>
  </g>
</svg>
