<svg width="8" height="12" viewBox="0 0 8 12" fill="none" xmlns="http://www.w3.org/2000/svg">
<path d="M7.72536 4.00466L4.49496 0.77666C4.45354 0.742855 4.40201 0.72385 4.34856 0.72266H0.570962C0.514498 0.722445 0.458439 0.732194 0.405362 0.75146L0.261362 0.89546C0.240323 0.947411 0.228545 1.00265 0.226562 1.05866V10.9503C0.228545 11.0063 0.240323 11.0615 0.261362 11.1135L0.405362 11.2575C0.45769 11.2786 0.513343 11.2904 0.569763 11.2923H7.43976C7.49659 11.2906 7.55266 11.2788 7.60536 11.2575L7.74936 11.1135C7.76986 11.0613 7.78162 11.0062 7.78416 10.9503V4.15106C7.78162 4.09703 7.7609 4.04544 7.72536 4.00466ZM7.56456 10.9995L7.49016 11.0751C7.47371 11.0796 7.45681 11.0825 7.43976 11.0835H0.570962C0.553911 11.0825 0.537016 11.0796 0.520562 11.0751L0.444962 10.9995C0.441301 10.9833 0.438894 10.9668 0.437763 10.9503V1.05866C0.438894 1.0421 0.441301 1.02565 0.444962 1.00946L0.525362 0.93386C0.541816 0.929274 0.558711 0.926458 0.575762 0.92546H4.25856V4.23746H7.57296V10.9503C7.57193 10.9669 7.56912 10.9834 7.56456 10.9995Z" fill="#A46801"/>
<path d="M7.43599 11.4016H0.567187C0.495471 11.3995 0.424719 11.3845 0.358388 11.3572C0.346049 11.3514 0.334707 11.3437 0.324788 11.3344L0.181988 11.1904C0.173527 11.1821 0.166619 11.1723 0.161588 11.1616C0.133798 11.0954 0.118735 11.0245 0.117188 10.9528V1.05756C0.118742 0.986179 0.133808 0.915737 0.161588 0.849963C0.166602 0.83721 0.17439 0.825733 0.184388 0.816362L0.327187 0.672363C0.336787 0.662637 0.348203 0.65489 0.360788 0.649563C0.426195 0.621444 0.496085 0.60519 0.567187 0.601562H4.34479C4.42777 0.605035 4.50684 0.637768 4.56799 0.693962L7.79599 3.92196C7.85272 3.98325 7.88551 4.0629 7.88839 4.14636V10.9492C7.88549 11.0222 7.86965 11.0941 7.84159 11.1616C7.83559 11.1741 7.82747 11.1854 7.81759 11.1952L7.67359 11.3392C7.66413 11.3485 7.65318 11.3562 7.64119 11.362C7.57563 11.3871 7.50618 11.4005 7.43599 11.4016ZM0.544388 10.9456L0.570788 10.972H7.43239L7.45879 10.9456V4.34556H4.25479C4.22591 4.34534 4.1983 4.33369 4.17799 4.31316C4.16729 4.30319 4.15878 4.29112 4.153 4.27769C4.14722 4.26426 4.14428 4.24978 4.14439 4.23516V1.03476H0.570788L0.543188 1.06236L0.544388 10.9456ZM4.36159 4.12596H7.56559C7.58635 4.12607 7.60667 4.13196 7.62427 4.14299C7.64186 4.15401 7.65603 4.16973 7.66519 4.18836V4.14996C7.66223 4.12454 7.65226 4.10044 7.63639 4.08036L4.41319 0.853562C4.3932 0.838531 4.36961 0.829014 4.34479 0.825962H4.30399C4.31475 0.830948 4.32451 0.837862 4.33279 0.846362C4.3431 0.856561 4.35127 0.868711 4.35683 0.882103C4.3624 0.895495 4.36524 0.909861 4.36519 0.924362L4.36159 4.12596Z" fill="#A46801"/>
<path d="M3.92456 7.47376H3.72656V8.61496H3.92816C4.00442 8.61905 4.08068 8.60706 4.152 8.57977C4.22332 8.55248 4.28811 8.5105 4.34216 8.45656C4.4465 8.33812 4.49996 8.18334 4.49096 8.02576C4.49506 7.95159 4.48397 7.87736 4.45839 7.80762C4.4328 7.73788 4.39325 7.67409 4.34216 7.62016C4.28587 7.5691 4.21991 7.52983 4.14818 7.50469C4.07646 7.47954 4.00042 7.46903 3.92456 7.47376Z" fill="#A46801"/>
<path d="M2.37835 7.4533H2.21875V8.0149H2.37835C2.59435 8.0149 2.70235 7.9201 2.70235 7.7305C2.70235 7.5409 2.59435 7.4485 2.37835 7.4533Z" fill="#A46801"/>
<path d="M7.52325 6.42189H0.479254C0.453265 6.42157 0.427473 6.42643 0.403384 6.4362C0.379296 6.44596 0.357395 6.46042 0.338961 6.47875C0.320527 6.49707 0.305929 6.51888 0.296021 6.54291C0.286113 6.56694 0.281092 6.5927 0.281254 6.61869V9.46629C0.281094 9.49218 0.286076 9.51784 0.29591 9.54179C0.305743 9.56574 0.320234 9.5875 0.33854 9.6058C0.356846 9.62411 0.378605 9.6386 0.402554 9.64843C0.426502 9.65827 0.452165 9.66325 0.478054 9.66309H7.52205C7.54814 9.66357 7.57407 9.65883 7.59829 9.64914C7.62252 9.63945 7.64456 9.62501 7.66313 9.60667C7.68169 9.58833 7.69639 9.56646 7.70638 9.54235C7.71636 9.51825 7.72142 9.49238 7.72125 9.46629V6.61869C7.72142 6.5927 7.7164 6.56694 7.70649 6.54291C7.69658 6.51888 7.68198 6.49707 7.66355 6.47875C7.64511 6.46042 7.62321 6.44596 7.59912 6.4362C7.57504 6.42643 7.54924 6.42157 7.52325 6.42189ZM2.93085 8.16069C2.78324 8.27862 2.59754 8.33838 2.40885 8.32869H2.21565V8.94909H1.81005V7.14909H2.44125C2.89485 7.14909 3.12045 7.33989 3.12045 7.72269C3.12372 7.80524 3.10838 7.88747 3.07556 7.96329C3.04274 8.03911 2.99328 8.10658 2.93085 8.16069ZM4.65765 8.69829C4.46769 8.87101 4.21691 8.96122 3.96045 8.94909H3.32205V7.14909H3.96045C4.60045 7.14909 4.92045 7.44149 4.92045 8.02629C4.92513 8.14944 4.90418 8.27223 4.85894 8.38687C4.81371 8.50151 4.74516 8.60551 4.65765 8.69229V8.69829ZM6.19125 7.47309H5.56125V7.92069H6.14445V8.24949H5.56125V8.94909H5.15085V7.14909H6.19125V7.47309Z" fill="#A46801"/>
</svg>
