<svg width="8" height="12" viewBox="0 0 8 12" fill="none" xmlns="http://www.w3.org/2000/svg">
<path d="M1.09091 12C0.790909 12 0.534091 11.8932 0.320455 11.6795C0.106818 11.4659 0 11.2091 0 10.9091V1.09091C0 0.790909 0.106818 0.534091 0.320455 0.320455C0.534091 0.106818 0.790909 0 1.09091 0H6.54545C6.84545 0 7.10227 0.106818 7.31591 0.320455C7.52955 0.534091 7.63636 0.790909 7.63636 1.09091V10.9091C7.63636 11.2091 7.52955 11.4659 7.31591 11.6795C7.10227 11.8932 6.84545 12 6.54545 12H1.09091ZM1.09091 9.27273V10.9091H6.54545V9.27273H1.09091ZM3.81818 10.6364C3.97273 10.6364 4.10227 10.5841 4.20682 10.4795C4.31136 10.375 4.36364 10.2455 4.36364 10.0909C4.36364 9.93636 4.31136 9.80682 4.20682 9.70227C4.10227 9.59773 3.97273 9.54545 3.81818 9.54545C3.66364 9.54545 3.53409 9.59773 3.42955 9.70227C3.325 9.80682 3.27273 9.93636 3.27273 10.0909C3.27273 10.2455 3.325 10.375 3.42955 10.4795C3.53409 10.5841 3.66364 10.6364 3.81818 10.6364ZM1.09091 8.18182H6.54545V2.72727H1.09091V8.18182ZM1.09091 1.63636H6.54545V1.09091H1.09091V1.63636Z" fill="#707070"/>
</svg>
