<svg width="16" height="17" viewBox="0 0 16 17" fill="none" xmlns="http://www.w3.org/2000/svg">
<path d="M10.6673 6.08333V4.08333H5.33398V6.08333H4.00065V2.75H12.0007V6.08333H10.6673ZM12.0007 9.08333C12.1895 9.08333 12.3479 9.01944 12.4757 8.89167C12.6034 8.76389 12.6673 8.60556 12.6673 8.41667C12.6673 8.22778 12.6034 8.06944 12.4757 7.94167C12.3479 7.81389 12.1895 7.75 12.0007 7.75C11.8118 7.75 11.6534 7.81389 11.5257 7.94167C11.3979 8.06944 11.334 8.22778 11.334 8.41667C11.334 8.60556 11.3979 8.76389 11.5257 8.89167C11.6534 9.01944 11.8118 9.08333 12.0007 9.08333ZM10.6673 13.4167V10.75H5.33398V13.4167H10.6673ZM12.0007 14.75H4.00065V12.0833H1.33398V8.08333C1.33398 7.51667 1.52843 7.04167 1.91732 6.65833C2.30621 6.275 2.77843 6.08333 3.33398 6.08333H12.6673C13.234 6.08333 13.709 6.275 14.0923 6.65833C14.4757 7.04167 14.6673 7.51667 14.6673 8.08333V12.0833H12.0007V14.75ZM13.334 10.75V8.08333C13.334 7.89444 13.2701 7.73611 13.1423 7.60833C13.0145 7.48056 12.8562 7.41667 12.6673 7.41667H3.33398C3.1451 7.41667 2.98676 7.48056 2.85898 7.60833C2.73121 7.73611 2.66732 7.89444 2.66732 8.08333V10.75H4.00065V9.41667H12.0007V10.75H13.334Z" fill="#707070"/>
</svg>
