<svg width="42" height="42" viewBox="0 0 42 42" fill="none" xmlns="http://www.w3.org/2000/svg">
<circle cx="21" cy="21" r="20.25" stroke="#ED0000" stroke-width="1.5"/>
<path d="M21 16H18V14H21H23H26V16H23H21ZM17 32C16.45 32 15.9792 31.8042 15.5875 31.4125C15.1958 31.0208 15 30.55 15 30C15 29.45 15.1958 28.9792 15.5875 28.5875C15.9792 28.1958 16.45 28 17 28C17.55 28 18.0208 28.1958 18.4125 28.5875C18.8042 28.9792 19 29.45 19 30C19 30.55 18.8042 31.0208 18.4125 31.4125C18.0208 31.8042 17.55 32 17 32ZM27 32C26.45 32 25.9792 31.8042 25.5875 31.4125C25.1958 31.0208 25 30.55 25 30C25 29.45 25.1958 28.9792 25.5875 28.5875C25.9792 28.1958 26.45 28 27 28C27.55 28 28.0208 28.1958 28.4125 28.5875C28.8042 28.9792 29 29.45 29 30C29 30.55 28.8042 31.0208 28.4125 31.4125C28.0208 31.8042 27.55 32 27 32ZM11 14V12H14.275L18.525 21H25.525L29.425 14H31.7L27.3 21.95C27.1167 22.2833 26.8708 22.5417 26.5625 22.725C26.2542 22.9083 25.9167 23 25.55 23H18.1L17 25H29V27H17C16.25 27 15.6792 26.675 15.2875 26.025C14.8958 25.375 14.8833 24.7167 15.25 24.05L16.6 21.6L13 14H11Z" fill="#ED0000"/>
</svg>
