<svg width="28" height="28" viewBox="0 0 28 28" fill="none" xmlns="http://www.w3.org/2000/svg">
<path d="M12.6 12.2V10.8H16.8V12.2H12.6ZM11.2 22C10.815 22 10.4854 21.8629 10.2113 21.5887C9.93708 21.3146 9.8 20.985 9.8 20.6C9.8 20.215 9.93708 19.8854 10.2113 19.6112C10.4854 19.3371 10.815 19.2 11.2 19.2C11.585 19.2 11.9146 19.3371 12.1888 19.6112C12.4629 19.8854 12.6 20.215 12.6 20.6C12.6 20.985 12.4629 21.3146 12.1888 21.5887C11.9146 21.8629 11.585 22 11.2 22ZM18.2 22C17.815 22 17.4854 21.8629 17.2113 21.5887C16.9371 21.3146 16.8 20.985 16.8 20.6C16.8 20.215 16.9371 19.8854 17.2113 19.6112C17.4854 19.3371 17.815 19.2 18.2 19.2C18.585 19.2 18.9146 19.3371 19.1888 19.6112C19.4629 19.8854 19.6 20.215 19.6 20.6C19.6 20.985 19.4629 21.3146 19.1888 21.5887C18.9146 21.8629 18.585 22 18.2 22ZM7 9.4V8H9.2925L12.2675 14.3H17.1675L19.8975 9.4H21.49L18.41 14.965C18.2817 15.1983 18.1096 15.3792 17.8938 15.5075C17.6779 15.6358 17.4417 15.7 17.185 15.7H11.97L11.2 17.1H19.6V18.5H11.2C10.675 18.5 10.2754 18.2725 10.0013 17.8175C9.72708 17.3625 9.71833 16.9017 9.975 16.435L10.92 14.72L8.4 9.4H7Z" fill="#1E1E1E"/>
<circle cx="14" cy="14" r="13.4" stroke="#707070" stroke-width="1.2"/>
</svg>
