<svg width="36" height="36" viewBox="0 0 36 36" fill="none" xmlns="http://www.w3.org/2000/svg">
<circle cx="18" cy="18" r="16" stroke="#ED0000" stroke-width="2" stroke-dasharray="4 4"/>
<path d="M14.759 26H11.641C11.1897 26 10.8034 25.8393 10.4821 25.5179C10.1607 25.1966 10 24.8103 10 24.359V21.241C10.6564 21.241 11.2308 21.0325 11.7231 20.6154C12.2154 20.1983 12.4615 19.6684 12.4615 19.0256C12.4615 18.3829 12.2154 17.853 11.7231 17.4359C11.2308 17.0188 10.6564 16.8103 10 16.8103V13.6923C10 13.241 10.1607 12.8547 10.4821 12.5333C10.8034 12.212 11.1897 12.0513 11.641 12.0513H14.9231C14.9231 11.4769 15.1214 10.9915 15.5179 10.5949C15.9145 10.1983 16.4 10 16.9744 10C17.5487 10 18.0342 10.1983 18.4308 10.5949C18.8274 10.9915 19.0256 11.4769 19.0256 12.0513H22.3077C22.759 12.0513 23.1453 12.212 23.4667 12.5333C23.788 12.8547 23.9487 13.241 23.9487 13.6923V16.9744C24.5231 16.9744 25.0085 17.1726 25.4051 17.5692C25.8017 17.9658 26 18.4513 26 19.0256C26 19.6 25.8017 20.0855 25.4051 20.4821C25.0085 20.8786 24.5231 21.0769 23.9487 21.0769V24.359C23.9487 24.8103 23.788 25.1966 23.4667 25.5179C23.1453 25.8393 22.759 26 22.3077 26H19.1897C19.1897 25.3162 18.9744 24.735 18.5436 24.2564C18.1128 23.7778 17.5897 23.5385 16.9744 23.5385C16.359 23.5385 15.8359 23.7778 15.4051 24.2564C14.9744 24.735 14.759 25.3162 14.759 26ZM11.641 24.359H13.3846C13.7128 23.4564 14.2393 22.8205 14.9641 22.4513C15.6889 22.0821 16.359 21.8974 16.9744 21.8974C17.5897 21.8974 18.2598 22.0821 18.9846 22.4513C19.7094 22.8205 20.2359 23.4564 20.5641 24.359H22.3077V19.4359H23.9487C24.0581 19.4359 24.1538 19.3949 24.2359 19.3128C24.3179 19.2308 24.359 19.135 24.359 19.0256C24.359 18.9162 24.3179 18.8205 24.2359 18.7385C24.1538 18.6564 24.0581 18.6154 23.9487 18.6154H22.3077V13.6923H17.3846V12.0513C17.3846 11.9419 17.3436 11.8462 17.2615 11.7641C17.1795 11.6821 17.0838 11.641 16.9744 11.641C16.865 11.641 16.7692 11.6821 16.6872 11.7641C16.6051 11.8462 16.5641 11.9419 16.5641 12.0513V13.6923H11.641V15.4974C12.3795 15.7709 12.9744 16.2291 13.4256 16.8718C13.8769 17.5145 14.1026 18.2325 14.1026 19.0256C14.1026 19.8051 13.8769 20.5162 13.4256 21.159C12.9744 21.8017 12.3795 22.2667 11.641 22.5538V24.359Z" fill="#ED0000"/>
</svg>
