<svg width="16" height="16" viewBox="0 0 16 16" fill="none" xmlns="http://www.w3.org/2000/svg">
<g id="save_FILL0_wght400_GRAD0_opsz24 1" clip-path="url(#clip0_5143_10087)">
<path id="Vector" d="M16 3.55556V14.2222C16 14.7111 15.8259 15.1296 15.4778 15.4778C15.1296 15.8259 14.7111 16 14.2222 16H1.77778C1.28889 16 0.87037 15.8259 0.522222 15.4778C0.174074 15.1296 0 14.7111 0 14.2222V1.77778C0 1.28889 0.174074 0.87037 0.522222 0.522222C0.87037 0.174074 1.28889 0 1.77778 0H12.4444L16 3.55556ZM14.2222 4.31111L11.6889 1.77778H1.77778V14.2222H14.2222V4.31111ZM8 13.3333C8.74074 13.3333 9.37037 13.0741 9.88889 12.5556C10.4074 12.037 10.6667 11.4074 10.6667 10.6667C10.6667 9.92593 10.4074 9.2963 9.88889 8.77778C9.37037 8.25926 8.74074 8 8 8C7.25926 8 6.62963 8.25926 6.11111 8.77778C5.59259 9.2963 5.33333 9.92593 5.33333 10.6667C5.33333 11.4074 5.59259 12.037 6.11111 12.5556C6.62963 13.0741 7.25926 13.3333 8 13.3333ZM2.66667 4.88889H10.6667V2.66667H2.66667V4.88889ZM1.77778 4.31111V14.2222V1.77778V4.31111Z" fill="#1E1E1E"/>
</g>
<defs>
<clipPath id="clip0_5143_10087">
<rect width="16" height="16" fill="white"/>
</clipPath>
</defs>
</svg>
