<svg width="16" height="16" viewBox="0 0 16 16" fill="none" xmlns="http://www.w3.org/2000/svg">
<g id="Search">
<path id="&#226;&#128;&#162;" d="M15.71 14.2928L12.6 11.1833C13.475 10.0134 14 8.56866 14 6.99891C14 3.13451 10.865 0 7 0C3.135 0 0 3.13451 0 6.99891C0 10.8633 3.135 13.9978 7 13.9978C8.57 13.9978 10.02 13.4729 11.185 12.598L14.295 15.7075C14.685 16.0975 15.32 16.0975 15.71 15.7075C16.095 15.3176 16.095 14.6827 15.71 14.2928ZM7 11.9981C4.245 11.9981 2 9.75348 2 6.99891C2 4.24434 4.245 1.99969 7 1.99969C9.755 1.99969 12 4.24434 12 6.99891C12 9.75348 9.755 11.9981 7 11.9981Z" fill="#1E1E1E"/>
</g>
</svg>
