<svg width="42" height="42" viewBox="0 0 42 42" fill="none" xmlns="http://www.w3.org/2000/svg">
  <circle
    cx="21"
    cy="21"
    r="20.25"
    stroke="red"
    stroke-width="1.5"
  />
  <path
    d="M25.4435 21.8887C24.3761 21.8887 23.4294 22.3703 22.777 23.117L20.0296 21.7429C20.0813 21.5029 20.1104 21.2545 20.1104 20.9996C20.1104 20.7446 20.0804 20.4963 20.0296 20.2563L22.7778 18.8822C23.4303 19.6288 24.3769 20.1104 25.4444 20.1104C27.4051 20.1104 29 18.5155 29 16.5548C28.9992 14.5949 27.4042 13 25.4435 13C23.4828 13 21.8879 14.5949 21.8879 16.5556C21.8879 16.8106 21.9179 17.059 21.9687 17.2989L19.2205 18.673C18.568 17.9264 17.6214 17.4448 16.5539 17.4448C14.5949 17.4439 13 19.0389 13 20.9996C13 22.9603 14.5949 24.5552 16.5556 24.5552C17.6223 24.5552 18.5697 24.0736 19.2222 23.3269L21.9695 24.701C21.9179 24.941 21.8887 25.1894 21.8887 25.4443C21.8887 27.4051 23.4836 29 25.4444 29C27.4051 28.9991 28.9991 27.4042 28.9991 25.4435C28.9991 23.4828 27.4042 21.8887 25.4435 21.8887Z"
    fill="none"
    stroke="red"
    stroke-width="1"
    stroke-linecap="butt"
    stroke-linejoin="miter"
  />
</svg>
