<svg width="16" height="16" viewBox="0 0 16 16" fill="none" xmlns="http://www.w3.org/2000/svg">
<path d="M12.4435 8.88869C11.3761 8.88869 10.4294 9.37033 9.77698 10.117L7.02961 8.74286C7.08127 8.50288 7.11044 8.25455 7.11044 7.99956C7.11044 7.74458 7.08044 7.49625 7.02961 7.25627L9.77783 5.88217C10.4303 6.6288 11.3769 7.11044 12.4444 7.11044C14.4051 7.11044 16 5.51552 16 3.55479C15.9992 1.5949 14.4042 0 12.4435 0C10.4828 0 8.88786 1.59492 8.88786 3.55565C8.88786 3.81063 8.91785 4.05896 8.96868 4.29894L6.22046 5.67303C5.56799 4.92641 4.62138 4.44477 3.55394 4.44477C1.59488 4.44394 0 6.03886 0 7.99956C0 9.96027 1.59492 11.5552 3.55565 11.5552C4.62225 11.5552 5.5697 11.0736 6.22217 10.3269L8.96954 11.701C8.91787 11.941 8.88871 12.1894 8.88871 12.4443C8.88871 14.4051 10.4836 16 12.4444 16C14.4051 15.9991 15.9991 14.4042 15.9991 12.4435C15.9991 10.4828 14.4042 8.88869 12.4435 8.88869ZM12.4435 1.7774C13.4235 1.7774 14.2209 2.57486 14.2209 3.55479C14.2209 4.53558 13.4234 5.33302 12.4435 5.33302C11.4636 5.33302 10.6661 4.53556 10.6661 3.55562C10.6661 2.57484 11.4636 1.7774 12.4435 1.7774ZM3.55567 9.77696C2.57488 9.77696 1.77827 8.9795 1.77827 7.99956C1.77827 7.01877 2.57573 6.22217 3.55567 6.22217C4.5356 6.22217 5.33306 7.0188 5.33306 7.99956C5.33306 8.97952 4.5356 9.77696 3.55567 9.77696ZM12.4435 14.2217C11.4635 14.2217 10.6661 13.4243 10.6661 12.4443C10.6661 11.4644 11.4636 10.6669 12.4435 10.6669C13.4234 10.6669 14.2209 11.4644 14.2209 12.4443C14.2217 13.4234 13.4234 14.2217 12.4435 14.2217Z" fill="#1E1E1E"/>
</svg>
