<svg width="25" height="24" viewBox="0 0 24 24" fill="none" xmlns="http://www.w3.org/2000/svg">
<g id="Shopping_cart_icon_set" clip-path="url(#clip0_3060_1199)">
<g id="Group 1171274800">
<g id="Shopping cart icon">
<path id="Vector" d="M9.61123 18.9927C9.28123 18.9927 8.99873 18.8752 8.76373 18.6402C8.52873 18.4052 8.41123 18.1227 8.41123 17.7927C8.41123 17.4627 8.52873 17.1802 8.76373 16.9452C8.99873 16.7102 9.28123 16.5927 9.61123 16.5927C9.94123 16.5927 10.2237 16.7102 10.4587 16.9452C10.6937 17.1802 10.8112 17.4627 10.8112 17.7927C10.8112 18.1227 10.6937 18.4052 10.4587 18.6402C10.2237 18.8752 9.94123 18.9927 9.61123 18.9927ZM15.6112 18.9927C15.2812 18.9927 14.9987 18.8752 14.7637 18.6402C14.5287 18.4052 14.4112 18.1227 14.4112 17.7927C14.4112 17.4627 14.5287 17.1802 14.7637 16.9452C14.9987 16.7102 15.2812 16.5927 15.6112 16.5927C15.9412 16.5927 16.2237 16.7102 16.4587 16.9452C16.6937 17.1802 16.8112 17.4627 16.8112 17.7927C16.8112 18.1227 16.6937 18.4052 16.4587 18.6402C16.2237 18.8752 15.9412 18.9927 15.6112 18.9927ZM9.10123 9.39268L10.5412 12.3927H14.7412L16.3912 9.39268H9.10123ZM8.53123 8.19268H17.3812C17.6112 8.19268 17.7862 8.29518 17.9062 8.50018C18.0262 8.70518 18.0312 8.91268 17.9212 9.12268L15.7912 12.9627C15.6812 13.1627 15.5337 13.3177 15.3487 13.4277C15.1637 13.5377 14.9612 13.5927 14.7412 13.5927H10.2712L9.61123 14.7927H16.8112V15.9927H9.61123C9.16123 15.9927 8.82123 15.7952 8.59123 15.4002C8.36123 15.0052 8.35123 14.6127 8.56123 14.2227L9.37123 12.7527L7.21123 8.19268H6.01123V6.99268H7.96123L8.53123 8.19268Z" fill="#333333"/>
</g>
<path id="Vector_2" fill-rule="evenodd" clip-rule="evenodd" d="M12.1367 1.23855C18.0767 1.23855 22.8982 6.05371 22.8982 12C22.8982 17.9463 18.083 22.7615 12.1367 22.7615C6.19043 22.7615 1.37527 17.94 1.37527 12C1.37527 6.06003 6.19043 1.23855 12.1367 1.23855ZM12.1367 0C18.7655 0 24.1367 5.37125 24.1367 12C24.1367 18.6288 18.7655 24 12.1367 24C5.50797 24 0.136719 18.6224 0.136719 12C0.136719 5.37757 5.50797 0 12.1367 0Z" fill="#333333"/>
</g>
</g>
<defs>
<clipPath id="clip0_3060_1199">
<rect width="24" height="24" fill="white" transform="translate(0.136719)"/>
</clipPath>
</defs>
</svg>
