<svg width="24" height="24" viewBox="0 0 24 24" fill="none" xmlns="http://www.w3.org/2000/svg">
<g clip-path="url(#clip0_1493_23657)">
<path d="M9.47451 18.9927C9.14451 18.9927 8.86201 18.8752 8.62701 18.6402C8.39201 18.4052 8.27451 18.1227 8.27451 17.7927C8.27451 17.4627 8.39201 17.1802 8.62701 16.9452C8.86201 16.7102 9.14451 16.5927 9.47451 16.5927C9.80451 16.5927 10.087 16.7102 10.322 16.9452C10.557 17.1802 10.6745 17.4627 10.6745 17.7927C10.6745 18.1227 10.557 18.4052 10.322 18.6402C10.087 18.8752 9.80451 18.9927 9.47451 18.9927ZM15.4745 18.9927C15.1445 18.9927 14.862 18.8752 14.627 18.6402C14.392 18.4052 14.2745 18.1227 14.2745 17.7927C14.2745 17.4627 14.392 17.1802 14.627 16.9452C14.862 16.7102 15.1445 16.5927 15.4745 16.5927C15.8045 16.5927 16.087 16.7102 16.322 16.9452C16.557 17.1802 16.6745 17.4627 16.6745 17.7927C16.6745 18.1227 16.557 18.4052 16.322 18.6402C16.087 18.8752 15.8045 18.9927 15.4745 18.9927ZM8.96451 9.39268L10.4045 12.3927H14.6045L16.2545 9.39268H8.96451ZM8.39451 8.19268H17.2445C17.4745 8.19268 17.6495 8.29518 17.7695 8.50018C17.8895 8.70518 17.8945 8.91268 17.7845 9.12268L15.6545 12.9627C15.5445 13.1627 15.397 13.3177 15.212 13.4277C15.027 13.5377 14.8245 13.5927 14.6045 13.5927H10.1345L9.47451 14.7927H16.6745V15.9927H9.47451C9.02451 15.9927 8.68451 15.7952 8.45451 15.4002C8.22451 15.0052 8.21451 14.6127 8.42451 14.2227L9.23451 12.7527L7.07451 8.19268H5.87451V6.99268H7.82451L8.39451 8.19268Z" fill="#ED0000"/>
<path fill-rule="evenodd" clip-rule="evenodd" d="M12 1.23855C17.94 1.23855 22.7615 6.05371 22.7615 12C22.7615 17.9463 17.9463 22.7615 12 22.7615C6.05371 22.7615 1.23855 17.94 1.23855 12C1.23855 6.06003 6.05371 1.23855 12 1.23855ZM12 0C18.6288 0 24 5.37125 24 12C24 18.6288 18.6288 24 12 24C5.37125 24 0 18.6224 0 12C0 5.37757 5.37125 0 12 0Z" fill="#ED0000"/>
</g>
<defs>
<clipPath id="clip0_1493_23657">
<rect width="24" height="24" fill="white"/>
</clipPath>
</defs>
</svg>
