<svg width="26" height="26" viewBox="0 0 26 26" fill="none" xmlns="http://www.w3.org/2000/svg">
<g id="noun-configuration-3558643 1">
<path id="Vector" fill-rule="evenodd" clip-rule="evenodd" d="M3.43959 10.7387C3.44063 10.7345 3.44235 10.7304 3.4447 10.7267C3.44921 10.7247 3.45407 10.7236 3.45902 10.7234L9.79266 10.1913C10.0591 10.1715 10.3147 10.078 10.5309 9.92111C10.7471 9.76423 10.9151 9.55024 11.0163 9.30317L13.4789 3.45009C13.4807 3.44586 13.4829 3.44184 13.4856 3.43809C13.4902 3.43764 13.4949 3.43764 13.4996 3.43809C13.5041 3.43783 13.5087 3.43783 13.5132 3.43809C13.516 3.44208 13.5184 3.44636 13.5203 3.45085L15.9837 9.30394C16.0848 9.55091 16.2528 9.7648 16.4689 9.92156C16.6849 10.0783 16.9405 10.1717 17.2068 10.1913L23.5405 10.7227C23.5451 10.7227 23.5497 10.7237 23.554 10.7255C23.5567 10.7295 23.5586 10.734 23.5596 10.7387C23.5613 10.7428 23.5624 10.7471 23.5627 10.7515C23.56 10.7555 23.5567 10.7592 23.553 10.7622L18.7417 14.9124C18.5379 15.0849 18.3863 15.3108 18.3037 15.5646C18.2211 15.8184 18.211 16.0902 18.2743 16.3495L19.7257 22.5325C19.728 22.5409 19.7272 22.5455 19.728 22.5455C19.7246 22.5491 19.7209 22.5525 19.717 22.5555C19.7135 22.5582 19.7096 22.5603 19.7055 22.5619C19.7007 22.561 19.6962 22.559 19.6922 22.5562L14.2558 19.2666C14.0287 19.1261 13.7669 19.0517 13.4997 19.0517C13.2326 19.0517 12.9708 19.1261 12.7437 19.2666L7.30704 22.5562C7.30316 22.5585 7.29915 22.5606 7.29503 22.5624C7.29054 22.5607 7.28632 22.5584 7.28251 22.5555C7.2751 22.5499 7.27254 22.546 7.27178 22.546C7.27178 22.5414 7.27247 22.5369 7.27382 22.5325L8.72466 16.3495C8.78832 16.0903 8.77832 15.8184 8.69579 15.5645C8.61326 15.3106 8.46147 15.0848 8.25749 14.9124L3.44649 10.763C3.43959 10.7566 3.43729 10.753 3.43678 10.753C3.43699 10.7482 3.43794 10.7433 3.43959 10.7387ZM25 10.7786V10.7398C24.9979 10.5889 24.9729 10.4393 24.9259 10.296C24.8399 10.0213 24.6734 9.77879 24.4478 9.59985C24.2222 9.42092 23.9481 9.31382 23.6608 9.29245L17.3269 8.76133C17.3229 8.76109 17.3189 8.76057 17.3149 8.75979C17.3121 8.75615 17.31 8.75198 17.3088 8.74754L14.8457 2.89343C14.7343 2.62867 14.5471 2.40265 14.3077 2.24372C14.0683 2.08478 13.7872 2 13.4997 2C13.2123 2 12.9312 2.08478 12.6918 2.24372C12.4524 2.40265 12.2652 2.62867 12.1538 2.89343L9.69171 8.74703C9.68839 8.75443 9.68635 8.75826 9.68635 8.75826C9.68212 8.75995 9.67761 8.76082 9.67306 8.76081L3.33865 9.29245C3.05201 9.3163 2.77881 9.42422 2.55335 9.60267C2.32789 9.78111 2.16022 10.0221 2.07138 10.2955C1.98254 10.5688 1.97649 10.8623 2.054 11.139C2.13151 11.4158 2.28912 11.6635 2.50704 11.851L7.31803 16.0004C7.32136 16.0031 7.32444 16.0061 7.32723 16.0094C7.32717 16.0139 7.32657 16.0185 7.32544 16.0229L5.87384 22.2054C5.80818 22.485 5.8266 22.7778 5.9268 23.047C6.02699 23.3162 6.2045 23.5498 6.43707 23.7186C6.66963 23.8874 6.9469 23.9839 7.2341 23.9958C7.52131 24.0078 7.80566 23.9348 8.0515 23.786L13.4879 20.4956C13.4948 20.4915 13.4989 20.4902 13.4994 20.4895C13.5034 20.4913 13.5073 20.4933 13.5111 20.4956L18.948 23.785C19.1929 23.9363 19.4776 24.0108 19.7653 23.9987C20.053 23.9867 20.3305 23.8888 20.5619 23.7176C20.7966 23.5507 20.9758 23.3173 21.0764 23.0475C21.1769 22.7777 21.194 22.484 21.1256 22.2044L19.674 16.0219C19.673 16.0178 19.6723 16.0136 19.6717 16.0094C19.6745 16.0058 19.6775 16.0026 19.6809 15.9997L24.4924 11.851C24.6486 11.7187 24.7746 11.5545 24.8621 11.3696C24.9497 11.1846 24.9967 10.9831 25 10.7786Z" fill="#1E1E1E" stroke="#1E1E1E" stroke-width="0.4"/>
</g>
</svg>
