<svg width="65" height="64" viewBox="0 0 65 64" fill="none" xmlns="http://www.w3.org/2000/svg">
<path d="M28.02 46.72L50.58 24.16L46.1 19.68L28.02 37.76L18.9 28.64L14.42 33.12L28.02 46.72ZM32.5 64C28.0733 64 23.9133 63.16 20.02 61.48C16.1267 59.8 12.74 57.52 9.86 54.64C6.98 51.76 4.7 48.3733 3.02 44.48C1.34 40.5867 0.5 36.4267 0.5 32C0.5 27.5733 1.34 23.4133 3.02 19.52C4.7 15.6267 6.98 12.24 9.86 9.36C12.74 6.48 16.1267 4.2 20.02 2.52C23.9133 0.84 28.0733 0 32.5 0C36.9267 0 41.0867 0.84 44.98 2.52C48.8733 4.2 52.26 6.48 55.14 9.36C58.02 12.24 60.3 15.6267 61.98 19.52C63.66 23.4133 64.5 27.5733 64.5 32C64.5 36.4267 63.66 40.5867 61.98 44.48C60.3 48.3733 58.02 51.76 55.14 54.64C52.26 57.52 48.8733 59.8 44.98 61.48C41.0867 63.16 36.9267 64 32.5 64ZM32.5 57.6C39.6467 57.6 45.7 55.12 50.66 50.16C55.62 45.2 58.1 39.1467 58.1 32C58.1 24.8533 55.62 18.8 50.66 13.84C45.7 8.88 39.6467 6.4 32.5 6.4C25.3533 6.4 19.3 8.88 14.34 13.84C9.38 18.8 6.9 24.8533 6.9 32C6.9 39.1467 9.38 45.2 14.34 50.16C19.3 55.12 25.3533 57.6 32.5 57.6Z" fill="#06BF6F"/>
</svg>
