<svg width="20" height="19" viewBox="0 0 20 19" fill="none" xmlns="http://www.w3.org/2000/svg">
<path d="M17 18.3151H9.0125V16.3401H17H17.0125V16.3276V9.22764C17.0125 7.27438 16.3321 5.61702 14.9713 4.2563C13.6106 2.89558 11.9533 2.21514 10 2.21514C8.04674 2.21514 6.38938 2.89558 5.02866 4.2563C3.66794 5.61702 2.9875 7.27438 2.9875 9.22764V15.3151H2C1.45334 15.3151 0.98568 15.1206 0.596339 14.7313C0.206998 14.342 0.0125 13.8743 0.0125 13.3276V11.3276C0.0125 10.9798 0.0994242 10.6528 0.273371 10.3463C0.447239 10.04 0.691453 9.79571 1.00626 9.61345L1.0114 9.62234L1.01248 9.60334L1.08746 8.27872C1.22064 7.14705 1.54933 6.09871 2.07348 5.1336C2.59783 4.16814 3.2553 3.3276 4.04589 2.6119C4.8364 1.89629 5.74342 1.33875 6.76704 0.939281C7.79055 0.539864 8.86817 0.340137 10 0.340137C11.1318 0.340137 12.2053 0.539864 13.2204 0.939269C14.2358 1.33875 15.1428 1.89215 15.9417 2.5995C16.7406 3.30682 17.398 4.14314 17.914 5.10853C18.4298 6.07368 18.7627 7.12208 18.9125 8.25381L18.9875 9.55336L18.974 9.55414L18.9946 9.56393C19.3091 9.71286 19.553 9.93613 19.7267 10.2339C19.9006 10.5321 19.9875 10.8466 19.9875 11.1776V13.4776C19.9875 13.8087 19.9006 14.1232 19.7267 14.4213C19.553 14.7191 19.3091 14.9424 18.9946 15.0913L18.9875 15.0762V15.1026V16.3276C18.9875 16.8743 18.793 17.342 18.4037 17.7313C18.0143 18.1206 17.5467 18.3151 17 18.3151ZM4.03634 9.7594C3.92454 8.00355 4.4571 6.49609 5.63413 5.23617C6.81505 3.97209 8.28672 3.34014 10.05 3.34014C11.5304 3.34014 12.8318 3.80996 13.9545 4.74972C15.0734 5.68629 15.7503 6.88286 15.9853 8.33996C14.4767 8.32083 13.088 7.91321 11.8191 7.11705C10.5461 6.31829 9.56851 5.2367 8.88618 3.87205L8.86989 3.83946L8.86274 3.87519C8.59648 5.20651 8.03487 6.39212 7.17785 7.43219C6.32452 8.46779 5.2774 9.24349 4.03634 9.7594ZM7 11.3151C6.71981 11.3151 6.48555 11.2205 6.29634 11.0313C6.10713 10.8421 6.0125 10.6078 6.0125 10.3276C6.0125 10.0475 6.10713 9.81318 6.29634 9.62398C6.48555 9.43477 6.71981 9.34014 7 9.34014C7.28019 9.34014 7.51445 9.43477 7.70366 9.62398C7.89287 9.81318 7.9875 10.0475 7.9875 10.3276C7.9875 10.6078 7.89287 10.8421 7.70366 11.0313C7.51445 11.2205 7.28019 11.3151 7 11.3151ZM13 11.3151C12.7198 11.3151 12.4855 11.2205 12.2963 11.0313C12.1071 10.8421 12.0125 10.6078 12.0125 10.3276C12.0125 10.0475 12.1071 9.81318 12.2963 9.62398C12.4855 9.43477 12.7198 9.34014 13 9.34014C13.2802 9.34014 13.5145 9.43477 13.7037 9.62398C13.8929 9.81318 13.9875 10.0475 13.9875 10.3276C13.9875 10.6078 13.8929 10.8421 13.7037 11.0313C13.5145 11.2205 13.2802 11.3151 13 11.3151Z" fill="white" stroke="white" stroke-width="0.025"/>
</svg>
