<svg width="16" height="16" viewBox="0 0 16 16" fill="none" xmlns="http://www.w3.org/2000/svg">
<path d="M11.0278 2.71928C13.1779 4.86937 13.3098 8.28439 11.4265 10.5883L11.913 11.0748C12.1139 11.0842 12.3085 11.1564 12.456 11.3039L13.4667 12.3146L14.0568 12.9047C14.0568 12.9047 14.0568 12.9047 14.0599 12.9047C14.0631 12.9047 14.0599 12.9047 14.0599 12.9079L14.65 13.498C14.65 13.498 14.65 13.498 14.6532 13.498C14.6563 13.498 14.6532 13.498 14.6532 13.5011L14.7599 13.6078C15.08 13.9248 15.08 14.4459 14.7599 14.7629C14.5998 14.923 14.3926 15.0014 14.1823 15.0014C13.972 15.0014 13.7649 14.923 13.6048 14.7629L13.4981 14.6562C13.4981 14.6562 13.4949 14.6562 13.4949 14.653C13.4949 14.6499 13.4949 14.6499 13.4918 14.6499L12.9048 14.0629L12.9017 14.0598L12.8986 14.0567L12.3116 13.4697C12.3116 13.4697 12.3085 13.4697 12.3085 13.4666C12.3085 13.4634 12.3085 13.4634 12.3053 13.4634L11.2946 12.4527C11.1471 12.3052 11.0655 12.1106 11.0592 11.9034L10.5821 11.4263C9.5369 12.2832 8.23744 12.7478 6.86891 12.7478C5.29951 12.7478 3.82427 12.1357 2.71313 11.0246C0.421799 8.73324 0.421799 5.00434 2.71313 2.71301C5.0076 0.427953 8.73651 0.427953 11.0278 2.71928ZM3.56061 10.1865C5.3874 12.0133 8.35671 12.0133 10.1835 10.1865C12.0103 8.35972 12.0103 5.39041 10.1835 3.56362C9.2701 2.65023 8.07108 2.1951 6.87205 2.1951C5.67303 2.1951 4.474 2.65023 3.56061 3.56362C1.73382 5.39041 1.73382 8.35972 3.56061 10.1865Z" fill="white"/>
<path d="M4.88585 6.36426H6.19473V5.05538C6.19473 4.96749 6.26379 4.89844 6.35167 4.89844H7.18973C7.27762 4.89844 7.34668 4.96749 7.34668 5.05538V6.36426H8.65556C8.74345 6.36426 8.8125 6.43332 8.8125 6.5212V7.35926C8.8125 7.44715 8.74345 7.5162 8.65556 7.5162H7.34668V8.82509C7.34668 8.91297 7.27762 8.98203 7.18973 8.98203H6.35167C6.26379 8.98203 6.19473 8.91297 6.19473 8.82509V7.5162H4.88585C4.79796 7.5162 4.72891 7.44715 4.72891 7.35926V6.5212C4.72891 6.43332 4.79796 6.36426 4.88585 6.36426Z" fill="white"/>
</svg>
